New_Shree-Black.ufo
<glyph name="uni0982" format="1">
  <advance width="345"/>
  <unicode hex="0982"/>
  <note>
	uni0982
  </note>
  <outline>
    <contour>
      <point x="46" y="483"/>
      <point x="103" y="529"/>
      <point x="172" y="529" type="curve" smooth="yes"/>
      <point x="253" y="529"/>
      <point x="308" y="466"/>
      <point x="308" y="391" type="curve" smooth="yes"/>
      <point x="308" y="319"/>
      <point x="257" y="268"/>
      <point x="184" y="268" type="curve" smooth="yes"/>
      <point x="103" y="268"/>
      <point x="46" y="331"/>
      <point x="46" y="407" type="curve" smooth="yes"/>
    </contour>
    <contour>
      <point x="118" y="355"/>
      <point x="129" y="342"/>
      <point x="150" y="342" type="curve" smooth="yes"/>
      <point x="189" y="342"/>
      <point x="236" y="385"/>
      <point x="236" y="422" type="curve" smooth="yes"/>
      <point x="236" y="440"/>
      <point x="225" y="454"/>
      <point x="203" y="454" type="curve" smooth="yes"/>
      <point x="165" y="454"/>
      <point x="118" y="412"/>
      <point x="118" y="373" type="curve" smooth="yes"/>
    </contour>
    <contour>
      <point x="72" y="257" type="line"/>
      <point x="170" y="213"/>
      <point x="254" y="113"/>
      <point x="325" y="-20" type="curve"/>
      <point x="282" y="-52" type="line"/>
      <point x="222" y="30"/>
      <point x="139" y="104"/>
      <point x="35" y="142" type="curve"/>
    </contour>
  </outline>
</glyph>
<glyph name="uni0983" format="1">
  <advance width="354"/>
  <unicode hex="0983"/>
  <note>
	uni0983
  </note>
  <outline>
    <contour>
      <point x="46" y="483"/>
      <point x="103" y="529"/>
      <point x="172" y="529" type="curve" smooth="yes"/>
      <point x="253" y="529"/>
      <point x="308" y="466"/>
      <point x="308" y="391" type="curve" smooth="yes"/>
      <point x="308" y="319"/>
      <point x="257" y="268"/>
      <point x="184" y="268" type="curve" smooth="yes"/>
      <point x="103" y="268"/>
      <point x="46" y="331"/>
      <point x="46" y="407" type="curve" smooth="yes"/>
    </contour>
    <contour>
      <point x="118" y="355"/>
      <point x="129" y="342"/>
      <point x="150" y="342" type="curve" smooth="yes"/>
      <point x="189" y="342"/>
      <point x="236" y="385"/>
      <point x="236" y="422" type="curve" smooth="yes"/>
      <point x="236" y="440"/>
      <point x="225" y="454"/>
      <point x="203" y="454" type="curve" smooth="yes"/>
      <point x="165" y="454"/>
      <point x="118" y="412"/>
      <point x="118" y="373" type="curve" smooth="yes"/>
    </contour>
    <contour>
      <point x="46" y="175"/>
      <point x="103" y="221"/>
      <point x="172" y="221" type="curve" smooth="yes"/>
      <point x="253" y="221"/>
      <point x="308" y="158"/>
      <point x="308" y="83" type="curve" smooth="yes"/>
      <point x="308" y="11"/>
      <point x="257" y="-40"/>
      <point x="184" y="-40" type="curve" smooth="yes"/>
      <point x="103" y="-40"/>
      <point x="46" y="23"/>
      <point x="46" y="99" type="curve" smooth="yes"/>
    </contour>
    <contour>
      <point x="118" y="47"/>
      <point x="129" y="34"/>
      <point x="150" y="34" type="curve" smooth="yes"/>
      <point x="189" y="34"/>
      <point x="236" y="77"/>
      <point x="236" y="114" type="curve" smooth="yes"/>
      <point x="236" y="132"/>
      <point x="225" y="146"/>
      <point x="203" y="146" type="curve" smooth="yes"/>
      <point x="165" y="146"/>
      <point x="118" y="104"/>
      <point x="118" y="65" type="curve" smooth="yes"/>
    </contour>
  </outline>
</glyph>
<glyph name="uni0985" format="1">
  <advance width="596"/>
  <unicode hex="0985"/>
  <note>
	uni0985
  </note>
  <outline>
    <contour>
      <point x="426" y="130"/>
      <point x="365" y="57"/>
      <point x="272" y="57" type="curve" smooth="yes"/>
      <point x="152" y="57"/>
      <point x="59" y="171"/>
      <point x="-12" y="398" type="curve"/>
      <point x="40" y="419" type="line"/>
      <point x="117" y="213"/>
      <point x="188" y="178"/>
      <point x="247" y="178" type="curve" smooth="yes"/>
      <point x="307" y="178"/>
      <point x="355" y="217"/>
      <point x="355" y="270" type="curve" smooth="yes"/>
      <point x="355" y="309"/>
      <point x="329" y="341"/>
      <point x="290" y="341" type="curve" smooth="yes"/>
      <point x="283" y="341"/>
      <point x="274" y="340"/>
      <point x="266" y="338" type="curve"/>
      <point x="278" y="391" type="line"/>
      <point x="292" y="375"/>
      <point x="301" y="352"/>
      <point x="301" y="328" type="curve" smooth="yes"/>
      <point x="301" y="282"/>
      <point x="268" y="253"/>
      <point x="227" y="253" type="curve" smooth="yes"/>
      <point x="180" y="253"/>
      <point x="145" y="292"/>
      <point x="145" y="339" type="curve" smooth="yes"/>
      <point x="145" y="390"/>
      <point x="186" y="428"/>
      <point x="249" y="428" type="curve" smooth="yes"/>
      <point x="345" y="428"/>
      <point x="426" y="340"/>
      <point x="426" y="226" type="curve"/>
    </contour>
    <contour>
      <point x="-30" y="456" type="line"/>
      <point x="-30" y="521" type="line"/>
      <point x="626" y="521" type="line"/>
      <point x="626" y="456" type="line"/>
    </contour>
    <contour>
      <point x="546" y="466" type="line"/>
      <point x="546" y="-40" type="line"/>
      <point x="501" y="-40" type="line"/>
      <point x="488" y="58"/>
      <point x="434" y="134"/>
      <point x="370" y="157" type="curve"/>
      <point x="391" y="259" type="line"/>
      <point x="437" y="219"/>
      <point x="487" y="144"/>
      <point x="515" y="60" type="curve"/>
      <point x="466" y="107" type="line"/>
      <point x="466" y="466" type="line"/>
    </contour>
  </outline>
</glyph>
<glyph name="uni0986" format="1">
  <advance width="782"/>
  <unicode hex="0986"/>
  <note>
	uni0986
  </note>
  <outline>
    <contour>
      <point x="426" y="130"/>
      <point x="365" y="57"/>
      <point x="272" y="57" type="curve" smooth="yes"/>
      <point x="152" y="57"/>
      <point x="59" y="171"/>
      <point x="-12" y="398" type="curve"/>
      <point x="40" y="419" type="line"/>
      <point x="117" y="213"/>
      <point x="188" y="178"/>
      <point x="247" y="178" type="curve" smooth="yes"/>
      <point x="307" y="178"/>
      <point x="355" y="217"/>
      <point x="355" y="270" type="curve" smooth="yes"/>
      <point x="355" y="309"/>
      <point x="329" y="341"/>
      <point x="290" y="341" type="curve" smooth="yes"/>
      <point x="283" y="341"/>
      <point x="274" y="340"/>
      <point x="266" y="338" type="curve"/>
      <point x="278" y="391" type="line"/>
      <point x="292" y="375"/>
      <point x="301" y="352"/>
      <point x="301" y="328" type="curve" smooth="yes"/>
      <point x="301" y="282"/>
      <point x="268" y="253"/>
      <point x="227" y="253" type="curve" smooth="yes"/>
      <point x="180" y="253"/>
      <point x="145" y="292"/>
      <point x="145" y="339" type="curve" smooth="yes"/>
      <point x="145" y="390"/>
      <point x="186" y="428"/>
      <point x="249" y="428" type="curve" smooth="yes"/>
      <point x="345" y="428"/>
      <point x="426" y="340"/>
      <point x="426" y="226" type="curve"/>
    </contour>
    <contour>
      <point x="-30" y="456" type="line"/>
      <point x="-30" y="521" type="line"/>
      <point x="596" y="521" type="line"/>
      <point x="596" y="456" type="line"/>
    </contour>
    <contour>
      <point x="546" y="466" type="line"/>
      <point x="546" y="-40" type="line"/>
      <point x="501" y="-40" type="line"/>
      <point x="488" y="58"/>
      <point x="434" y="134"/>
      <point x="370" y="157" type="curve"/>
      <point x="391" y="259" type="line"/>
      <point x="437" y="219"/>
      <point x="487" y="144"/>
      <point x="515" y="60" type="curve"/>
      <point x="466" y="107" type="line"/>
      <point x="466" y="466" type="line"/>
    </contour>
    <contour>
      <point x="812" y="521" type="line"/>
      <point x="812" y="456" type="line"/>
      <point x="732" y="456" type="line"/>
      <point x="732" y="-40" type="line"/>
      <point x="652" y="-40" type="line"/>
      <point x="652" y="346" type="line" smooth="yes"/>
      <point x="652" y="405"/>
      <point x="651" y="456"/>
      <point x="606" y="456" type="curve" smooth="yes"/>
      <point x="560" y="456" type="line"/>
      <point x="560" y="521" type="line"/>
      <point x="621" y="521" type="line" smooth="yes"/>
      <point x="664" y="521"/>
      <point x="678" y="474"/>
      <point x="687" y="394" type="curve"/>
      <point x="652" y="371" type="line"/>
      <point x="682" y="521" type="line"/>
    </contour>
  </outline>
</glyph>
<glyph name="uni0987" format="1">
  <advance width="446"/>
  <unicode hex="0987"/>
  <note>
	uni0987
  </note>
  <outline>
    <contour>
      <point x="312" y="516" type="line"/>
      <point x="319" y="525"/>
      <point x="322" y="535"/>
      <point x="322" y="545" type="curve" smooth="yes"/>
      <point x="322" y="565"/>
      <point x="311" y="576"/>
      <point x="279" y="576" type="curve" smooth="yes"/>
      <point x="246" y="576"/>
      <point x="156" y="564"/>
      <point x="114" y="564" type="curve" smooth="yes"/>
      <point x="32" y="564"/>
      <point x="-29" y="610"/>
      <point x="-29" y="678" type="curve" smooth="yes"/>
      <point x="-29" y="712"/>
      <point x="-14" y="741"/>
      <point x="6" y="764" type="curve"/>
      <point x="54" y="738" type="line"/>
      <point x="36" y="721"/>
      <point x="29" y="703"/>
      <point x="29" y="691" type="curve" smooth="yes"/>
      <point x="29" y="673"/>
      <point x="43" y="663"/>
      <point x="78" y="663" type="curve" smooth="yes"/>
      <point x="117" y="663"/>
      <point x="182" y="675"/>
      <point x="223" y="675" type="curve" smooth="yes"/>
      <point x="325" y="675"/>
      <point x="382" y="601"/>
      <point x="391" y="515" type="curve"/>
    </contour>
    <contour>
      <point x="471" y="521" type="line"/>
      <point x="471" y="456" type="line"/>
      <point x="-30" y="456" type="line"/>
      <point x="-30" y="521" type="line"/>
    </contour>
    <contour>
      <point x="319" y="432"/>
      <point x="407" y="353"/>
      <point x="407" y="254" type="curve" smooth="yes"/>
      <point x="407" y="157"/>
      <point x="322" y="86"/>
      <point x="212" y="86" type="curve"/>
      <point x="172" y="146" type="line"/>
      <point x="261" y="107"/>
      <point x="334" y="64"/>
      <point x="480" y="-60" type="curve"/>
      <point x="444" y="-105" type="line"/>
      <point x="302" y="3"/>
      <point x="227" y="35"/>
      <point x="96" y="61" type="curve"/>
      <point x="9" y="222" type="line"/>
      <point x="51" y="199"/>
      <point x="102" y="186"/>
      <point x="154" y="186" type="curve" smooth="yes"/>
      <point x="256" y="186"/>
      <point x="327" y="236"/>
      <point x="327" y="294" type="curve" smooth="yes"/>
      <point x="327" y="326"/>
      <point x="305" y="348"/>
      <point x="263" y="348" type="curve" smooth="yes"/>
      <point x="237" y="348"/>
      <point x="223" y="340"/>
      <point x="201" y="329" type="curve"/>
      <point x="220" y="390" type="line"/>
      <point x="233" y="373"/>
      <point x="236" y="357"/>
      <point x="236" y="343" type="curve" smooth="yes"/>
      <point x="236" y="286"/>
      <point x="187" y="239"/>
      <point x="128" y="239" type="curve" smooth="yes"/>
      <point x="77" y="239"/>
      <point x="40" y="275"/>
      <point x="40" y="321" type="curve" smooth="yes"/>
      <point x="40" y="382"/>
      <point x="105" y="432"/>
      <point x="200" y="432" type="curve" smooth="yes"/>
    </contour>
  </outline>
</glyph>
<glyph name="uni0988" format="1">
  <advance width="501"/>
  <unicode hex="0988"/>
  <note>
	uni0988
  </note>
  <outline>
    <contour>
      <point x="15" y="386"/>
      <point x="61" y="434"/>
      <point x="130" y="434" type="curve" smooth="yes"/>
      <point x="215" y="434"/>
      <point x="286" y="360"/>
      <point x="286" y="261" type="curve" smooth="yes"/>
      <point x="286" y="245"/>
      <point x="284" y="235"/>
      <point x="281" y="224" type="curve"/>
      <point x="236" y="267" type="line"/>
      <point x="285" y="333"/>
      <point x="343" y="388"/>
      <point x="412" y="421" type="curve"/>
      <point x="487" y="332" type="line"/>
      <point x="432" y="290"/>
      <point x="405" y="229"/>
      <point x="405" y="147" type="curve" smooth="yes"/>
      <point x="405" y="100"/>
      <point x="414" y="40"/>
      <point x="439" y="-34" type="curve"/>
      <point x="390" y="-52" type="line"/>
      <point x="352" y="40"/>
      <point x="331" y="112"/>
      <point x="331" y="182" type="curve" smooth="yes"/>
      <point x="331" y="237"/>
      <point x="344" y="293"/>
      <point x="387" y="351" type="curve"/>
      <point x="423" y="300" type="line"/>
      <point x="345" y="247"/>
      <point x="352" y="251"/>
      <point x="282" y="161" type="curve" smooth="yes"/>
      <point x="227" y="90"/>
      <point x="199" y="59"/>
      <point x="151" y="59" type="curve" smooth="yes"/>
      <point x="88" y="59"/>
      <point x="43" y="112"/>
      <point x="25" y="189" type="curve"/>
      <point x="76" y="209" type="line"/>
      <point x="81" y="185"/>
      <point x="93" y="164"/>
      <point x="118" y="164" type="curve" smooth="yes"/>
      <point x="161" y="164"/>
      <point x="223" y="240"/>
      <point x="223" y="291" type="curve" smooth="yes"/>
      <point x="223" y="317"/>
      <point x="208" y="341"/>
      <point x="180" y="341" type="curve" smooth="yes"/>
      <point x="161" y="341"/>
      <point x="144" y="330"/>
      <point x="131" y="315" type="curve"/>
      <point x="131" y="378" type="line"/>
      <point x="156" y="358"/>
      <point x="167" y="337"/>
      <point x="167" y="314" type="curve" smooth="yes"/>
      <point x="167" y="274"/>
      <point x="135" y="246"/>
      <point x="96" y="246" type="curve" smooth="yes"/>
      <point x="52" y="246"/>
      <point x="15" y="281"/>
      <point x="15" y="331" type="curve" smooth="yes"/>
    </contour>
    <contour>
      <point x="352" y="516" type="line"/>
      <point x="359" y="525"/>
      <point x="362" y="535"/>
      <point x="362" y="545" type="curve" smooth="yes"/>
      <point x="362" y="565"/>
      <point x="351" y="576"/>
      <point x="318" y="576" type="curve" smooth="yes"/>
      <point x="283" y="576"/>
      <point x="170" y="564"/>
      <point x="126" y="564" type="curve" smooth="yes"/>
      <point x="41" y="564"/>
      <point x="-19" y="610"/>
      <point x="-19" y="678" type="curve" smooth="yes"/>
      <point x="-19" y="712"/>
      <point x="-4" y="741"/>
      <point x="16" y="764" type="curve"/>
      <point x="64" y="738" type="line"/>
      <point x="46" y="721"/>
      <point x="39" y="703"/>
      <point x="39" y="691" type="curve" smooth="yes"/>
      <point x="39" y="673"/>
      <point x="52" y="663"/>
      <point x="90" y="663" type="curve" smooth="yes"/>
      <point x="131" y="663"/>
      <point x="218" y="675"/>
      <point x="260" y="675" type="curve" smooth="yes"/>
      <point x="366" y="675"/>
      <point x="422" y="601"/>
      <point x="431" y="515" type="curve"/>
    </contour>
    <contour>
      <point x="531" y="521" type="line"/>
      <point x="531" y="456" type="line"/>
      <point x="-30" y="456" type="line"/>
      <point x="-30" y="521" type="line"/>
    </contour>
  </outline>
</glyph>
<glyph name="uni0989" format="1">
  <advance width="513"/>
  <unicode hex="0989"/>
  <note>
	uni0989
  </note>
  <outline>
    <contour>
      <point x="253" y="466" type="line"/>
      <point x="253" y="294" type="line" smooth="yes"/>
      <point x="253" y="283"/>
      <point x="256" y="275"/>
      <point x="266" y="275" type="curve" smooth="yes"/>
      <point x="289" y="275"/>
      <point x="335" y="317"/>
      <point x="380" y="387" type="curve"/>
      <point x="434" y="340"/>
      <point x="487" y="270"/>
      <point x="487" y="173" type="curve" smooth="yes"/>
      <point x="487" y="62"/>
      <point x="417" y="-18"/>
      <point x="306" y="-18" type="curve" smooth="yes"/>
      <point x="176" y="-18"/>
      <point x="68" y="90"/>
      <point x="-10" y="404" type="curve"/>
      <point x="48" y="422" type="line"/>
      <point x="106" y="178"/>
      <point x="185" y="98"/>
      <point x="285" y="98" type="curve" smooth="yes"/>
      <point x="362" y="98"/>
      <point x="417" y="146"/>
      <point x="417" y="210" type="curve" smooth="yes"/>
      <point x="417" y="248"/>
      <point x="398" y="285"/>
      <point x="360" y="307" type="curve"/>
      <point x="432" y="277" type="line"/>
      <point x="400" y="216"/>
      <point x="339" y="174"/>
      <point x="293" y="174" type="curve" smooth="yes"/>
      <point x="230" y="174"/>
      <point x="173" y="254"/>
      <point x="173" y="329" type="curve" smooth="yes"/>
      <point x="173" y="466" type="line"/>
    </contour>
    <contour>
      <point x="-30" y="456" type="line"/>
      <point x="-30" y="521" type="line"/>
      <point x="543" y="521" type="line"/>
      <point x="543" y="456" type="line"/>
    </contour>
    <contour>
      <point x="382" y="516" type="line"/>
      <point x="389" y="525"/>
      <point x="392" y="535"/>
      <point x="392" y="545" type="curve" smooth="yes"/>
      <point x="392" y="564"/>
      <point x="380" y="576"/>
      <point x="341" y="576" type="curve" smooth="yes"/>
      <point x="301" y="576"/>
      <point x="190" y="564"/>
      <point x="146" y="564" type="curve" smooth="yes"/>
      <point x="61" y="564"/>
      <point x="1" y="610"/>
      <point x="1" y="678" type="curve" smooth="yes"/>
      <point x="1" y="712"/>
      <point x="16" y="741"/>
      <point x="36" y="764" type="curve"/>
      <point x="84" y="738" type="line"/>
      <point x="66" y="721"/>
      <point x="59" y="703"/>
      <point x="59" y="691" type="curve" smooth="yes"/>
      <point x="59" y="673"/>
      <point x="72" y="663"/>
      <point x="110" y="663" type="curve" smooth="yes"/>
      <point x="151" y="663"/>
      <point x="237" y="675"/>
      <point x="281" y="675" type="curve" smooth="yes"/>
      <point x="391" y="675"/>
      <point x="451" y="601"/>
      <point x="461" y="515" type="curve"/>
    </contour>
  </outline>
</glyph>
<glyph name="uni098A" format="1">
  <advance width="583"/>
  <unicode hex="098A"/>
  <note>
	uni098A
  </note>
  <outline>
    <contour>
      <point x="284" y="35" type="line"/>
      <point x="179" y="98"/>
      <point x="125" y="220"/>
      <point x="80" y="417" type="curve"/>
      <point x="133" y="431" type="line"/>
      <point x="192" y="172"/>
      <point x="270" y="98"/>
      <point x="359" y="98" type="curve" smooth="yes"/>
      <point x="431" y="98"/>
      <point x="487" y="146"/>
      <point x="487" y="210" type="curve" smooth="yes"/>
      <point x="487" y="248"/>
      <point x="468" y="285"/>
      <point x="430" y="307" type="curve"/>
      <point x="502" y="277" type="line"/>
      <point x="470" y="216"/>
      <point x="409" y="174"/>
      <point x="363" y="174" type="curve" smooth="yes"/>
      <point x="300" y="174"/>
      <point x="243" y="254"/>
      <point x="243" y="329" type="curve" smooth="yes"/>
      <point x="243" y="466" type="line"/>
      <point x="323" y="466" type="line"/>
      <point x="323" y="294" type="line" smooth="yes"/>
      <point x="323" y="283"/>
      <point x="326" y="275"/>
      <point x="336" y="275" type="curve" smooth="yes"/>
      <point x="359" y="275"/>
      <point x="405" y="317"/>
      <point x="450" y="387" type="curve"/>
      <point x="502" y="342"/>
      <point x="557" y="270"/>
      <point x="557" y="173" type="curve" smooth="yes"/>
      <point x="557" y="62"/>
      <point x="485" y="-18"/>
      <point x="349" y="-18" type="curve" smooth="yes"/>
      <point x="192" y="-18"/>
      <point x="76" y="94"/>
      <point x="-10" y="401" type="curve"/>
      <point x="43" y="417" type="line"/>
      <point x="110" y="171"/>
      <point x="195" y="58"/>
      <point x="335" y="58" type="curve"/>
    </contour>
    <contour>
      <point x="-30" y="456" type="line"/>
      <point x="-30" y="521" type="line"/>
      <point x="613" y="521" type="line"/>
      <point x="613" y="456" type="line"/>
    </contour>
    <contour>
      <point x="452" y="516" type="line"/>
      <point x="459" y="525"/>
      <point x="462" y="535"/>
      <point x="462" y="545" type="curve" smooth="yes"/>
      <point x="462" y="565"/>
      <point x="450" y="576"/>
      <point x="409" y="576" type="curve" smooth="yes"/>
      <point x="367" y="576"/>
      <point x="226" y="564"/>
      <point x="178" y="564" type="curve" smooth="yes"/>
      <point x="84" y="564"/>
      <point x="21" y="610"/>
      <point x="21" y="678" type="curve" smooth="yes"/>
      <point x="21" y="712"/>
      <point x="36" y="741"/>
      <point x="56" y="764" type="curve"/>
      <point x="104" y="738" type="line"/>
      <point x="86" y="721"/>
      <point x="79" y="703"/>
      <point x="79" y="691" type="curve" smooth="yes"/>
      <point x="79" y="673"/>
      <point x="95" y="663"/>
      <point x="139" y="663" type="curve" smooth="yes"/>
      <point x="188" y="663"/>
      <point x="302" y="675"/>
      <point x="345" y="675" type="curve" smooth="yes"/>
      <point x="453" y="675"/>
      <point x="521" y="601"/>
      <point x="531" y="515" type="curve"/>
    </contour>
  </outline>
</glyph>
<glyph name="uni098B" format="1">
  <advance width="626"/>
  <unicode hex="098B"/>
  <note>
	uni098B
  </note>
  <outline>
    <contour>
      <point x="354" y="521" type="line"/>
      <point x="434" y="521" type="line"/>
      <point x="434" y="-40" type="line"/>
      <point x="389" y="-40" type="line"/>
      <point x="379" y="38"/>
      <point x="291" y="115"/>
      <point x="154" y="132" type="curve"/>
      <point x="70" y="265" type="line"/>
      <point x="165" y="326"/>
      <point x="271" y="385"/>
      <point x="372" y="429" type="curve"/>
      <point x="402" y="320" type="line"/>
      <point x="313" y="280"/>
      <point x="230" y="237"/>
      <point x="149" y="180" type="curve"/>
      <point x="123" y="253" type="line"/>
      <point x="240" y="221"/>
      <point x="348" y="158"/>
      <point x="404" y="38" type="curve"/>
      <point x="354" y="62" type="line"/>
    </contour>
    <contour>
      <point x="417" y="257" type="line"/>
      <point x="481" y="217"/>
      <point x="523" y="158"/>
      <point x="544" y="83" type="curve"/>
      <point x="496" y="126" type="line"/>
      <point x="496" y="521" type="line"/>
      <point x="656" y="521" type="line"/>
      <point x="656" y="456" type="line"/>
      <point x="576" y="456" type="line"/>
      <point x="576" y="11" type="line"/>
      <point x="531" y="11" type="line"/>
      <point x="521" y="82"/>
      <point x="490" y="135"/>
      <point x="425" y="154" type="curve"/>
    </contour>
    <contour>
      <point x="293" y="364" type="line"/>
      <point x="281" y="408"/>
      <point x="255" y="436"/>
      <point x="227" y="453" type="curve"/>
      <point x="289" y="455" type="line"/>
      <point x="244" y="391"/>
      <point x="182" y="358"/>
      <point x="127" y="358" type="curve" smooth="yes"/>
      <point x="67" y="358"/>
      <point x="26" y="395"/>
      <point x="26" y="444" type="curve" smooth="yes"/>
      <point x="26" y="483"/>
      <point x="53" y="508"/>
      <point x="88" y="508" type="curve" smooth="yes"/>
      <point x="125" y="508"/>
      <point x="150" y="481"/>
      <point x="150" y="449" type="curve" smooth="yes"/>
      <point x="150" y="430"/>
      <point x="141" y="415"/>
      <point x="123" y="404" type="curve"/>
      <point x="98" y="455" type="line"/>
      <point x="108" y="452"/>
      <point x="120" y="451"/>
      <point x="126" y="451" type="curve" smooth="yes"/>
      <point x="158" y="451"/>
      <point x="210" y="487"/>
      <point x="238" y="531" type="curve"/>
      <point x="297" y="494"/>
      <point x="333" y="443"/>
      <point x="352" y="385" type="curve"/>
    </contour>
  </outline>
</glyph>
<glyph name="uni098C" format="1">
  <advance width="487"/>
  <unicode hex="098C"/>
  <note>
	uni098C
  </note>
  <outline>
    <contour>
      <point x="54" y="184"/>
      <point x="116" y="248"/>
      <point x="202" y="248" type="curve" smooth="yes"/>
      <point x="298" y="248"/>
      <point x="379" y="169"/>
      <point x="379" y="50" type="curve" smooth="yes"/>
      <point x="379" y="16"/>
      <point x="369" y="-5"/>
      <point x="363" y="-14" type="curve"/>
      <point x="324" y="65" type="line"/>
      <point x="374" y="77"/>
      <point x="414" y="112"/>
      <point x="414" y="162" type="curve" smooth="yes"/>
      <point x="414" y="209"/>
      <point x="386" y="236"/>
      <point x="225" y="299" type="curve" smooth="yes"/>
      <point x="94" y="353"/>
      <point x="60" y="423"/>
      <point x="60" y="471" type="curve" smooth="yes"/>
      <point x="60" y="522"/>
      <point x="96" y="553"/>
      <point x="135" y="553" type="curve" smooth="yes"/>
      <point x="180" y="553"/>
      <point x="208" y="518"/>
      <point x="208" y="482" type="curve" smooth="yes"/>
      <point x="208" y="447"/>
      <point x="181" y="419"/>
      <point x="149" y="419" type="curve" smooth="yes"/>
      <point x="141" y="419"/>
      <point x="131" y="421"/>
      <point x="120" y="425" type="curve"/>
      <point x="128" y="462" type="line"/>
      <point x="168" y="421"/>
      <point x="193" y="408"/>
      <point x="322" y="357" type="curve" smooth="yes"/>
      <point x="432" y="313"/>
      <point x="477" y="232"/>
      <point x="477" y="143" type="curve" smooth="yes"/>
      <point x="477" y="42"/>
      <point x="389" y="-38"/>
      <point x="277" y="-48" type="curve"/>
      <point x="303" y="-12"/>
      <point x="316" y="29"/>
      <point x="316" y="67" type="curve" smooth="yes"/>
      <point x="316" y="126"/>
      <point x="273" y="154"/>
      <point x="226" y="154" type="curve" smooth="yes"/>
      <point x="169" y="154"/>
      <point x="133" y="111"/>
      <point x="133" y="69" type="curve" smooth="yes"/>
      <point x="133" y="50"/>
      <point x="140" y="32"/>
      <point x="155" y="19" type="curve"/>
      <point x="131" y="29" type="line"/>
      <point x="133" y="69"/>
      <point x="159" y="85"/>
      <point x="188" y="85" type="curve" smooth="yes"/>
      <point x="226" y="85"/>
      <point x="255" y="57"/>
      <point x="255" y="18" type="curve" smooth="yes"/>
      <point x="255" y="-18"/>
      <point x="225" y="-48"/>
      <point x="179" y="-48" type="curve" smooth="yes"/>
      <point x="115" y="-48"/>
      <point x="54" y="12"/>
      <point x="54" y="98" type="curve" smooth="yes"/>
    </contour>
  </outline>
</glyph>
<glyph name="uni098F" format="1">
  <advance width="552"/>
  <unicode hex="098F"/>
  <note>
	uni098F
  </note>
  <outline>
    <contour>
      <point x="10" y="311"/>
      <point x="25" y="356"/>
      <point x="55" y="398" type="curve"/>
      <point x="100" y="374" type="line"/>
      <point x="84" y="345"/>
      <point x="69" y="308"/>
      <point x="69" y="266" type="curve" smooth="yes"/>
      <point x="69" y="193"/>
      <point x="116" y="149"/>
      <point x="188" y="149" type="curve" smooth="yes"/>
      <point x="227" y="149"/>
      <point x="287" y="162"/>
      <point x="321" y="162" type="curve" smooth="yes"/>
      <point x="386" y="162"/>
      <point x="440" y="116"/>
      <point x="463" y="33" type="curve"/>
      <point x="422" y="81" type="line"/>
      <point x="422" y="428" type="line" smooth="yes"/>
      <point x="422" y="439"/>
      <point x="417" y="448"/>
      <point x="406" y="448" type="curve" smooth="yes"/>
      <point x="371" y="448"/>
      <point x="272" y="353"/>
      <point x="272" y="287" type="curve" smooth="yes"/>
      <point x="272" y="276"/>
      <point x="275" y="260"/>
      <point x="279" y="251" type="curve"/>
      <point x="225" y="291" type="line"/>
      <point x="235" y="317"/>
      <point x="261" y="338"/>
      <point x="291" y="338" type="curve" smooth="yes"/>
      <point x="327" y="338"/>
      <point x="359" y="306"/>
      <point x="359" y="267" type="curve" smooth="yes"/>
      <point x="359" y="226"/>
      <point x="325" y="193"/>
      <point x="275" y="193" type="curve" smooth="yes"/>
      <point x="214" y="193"/>
      <point x="164" y="244"/>
      <point x="164" y="311" type="curve" smooth="yes"/>
      <point x="164" y="413"/>
      <point x="281" y="530"/>
      <point x="367" y="530" type="curve" smooth="yes"/>
      <point x="437" y="530"/>
      <point x="502" y="451"/>
      <point x="502" y="383" type="curve" smooth="yes"/>
      <point x="502" y="-40" type="line"/>
      <point x="457" y="-40" type="line"/>
      <point x="449" y="22"/>
      <point x="425" y="55"/>
      <point x="365" y="55" type="curve" smooth="yes"/>
      <point x="326" y="55"/>
      <point x="267" y="41"/>
      <point x="221" y="41" type="curve" smooth="yes"/>
      <point x="99" y="41"/>
      <point x="10" y="137"/>
      <point x="10" y="260" type="curve" smooth="yes"/>
    </contour>
  </outline>
</glyph>
<glyph name="uni0990" format="1">
  <advance width="598"/>
  <unicode hex="0990"/>
  <note>
	uni0990
  </note>
  <outline>
    <contour>
      <point x="10" y="311"/>
      <point x="25" y="356"/>
      <point x="55" y="398" type="curve"/>
      <point x="100" y="374" type="line"/>
      <point x="84" y="345"/>
      <point x="69" y="308"/>
      <point x="69" y="266" type="curve" smooth="yes"/>
      <point x="69" y="193"/>
      <point x="116" y="149"/>
      <point x="188" y="149" type="curve" smooth="yes"/>
      <point x="227" y="149"/>
      <point x="287" y="162"/>
      <point x="321" y="162" type="curve" smooth="yes"/>
      <point x="386" y="162"/>
      <point x="440" y="116"/>
      <point x="463" y="33" type="curve"/>
      <point x="422" y="81" type="line"/>
      <point x="422" y="428" type="line" smooth="yes"/>
      <point x="422" y="439"/>
      <point x="417" y="448"/>
      <point x="406" y="448" type="curve" smooth="yes"/>
      <point x="371" y="448"/>
      <point x="272" y="353"/>
      <point x="272" y="287" type="curve" smooth="yes"/>
      <point x="272" y="276"/>
      <point x="275" y="260"/>
      <point x="279" y="251" type="curve"/>
      <point x="225" y="291" type="line"/>
      <point x="235" y="317"/>
      <point x="261" y="338"/>
      <point x="291" y="338" type="curve" smooth="yes"/>
      <point x="327" y="338"/>
      <point x="359" y="306"/>
      <point x="359" y="267" type="curve" smooth="yes"/>
      <point x="359" y="226"/>
      <point x="325" y="193"/>
      <point x="275" y="193" type="curve" smooth="yes"/>
      <point x="214" y="193"/>
      <point x="164" y="244"/>
      <point x="164" y="311" type="curve" smooth="yes"/>
      <point x="164" y="413"/>
      <point x="281" y="530"/>
      <point x="367" y="530" type="curve" smooth="yes"/>
      <point x="437" y="530"/>
      <point x="502" y="451"/>
      <point x="502" y="383" type="curve" smooth="yes"/>
      <point x="502" y="-40" type="line"/>
      <point x="457" y="-40" type="line"/>
      <point x="449" y="22"/>
      <point x="425" y="55"/>
      <point x="365" y="55" type="curve" smooth="yes"/>
      <point x="326" y="55"/>
      <point x="267" y="41"/>
      <point x="221" y="41" type="curve" smooth="yes"/>
      <point x="99" y="41"/>
      <point x="10" y="137"/>
      <point x="10" y="260" type="curve" smooth="yes"/>
    </contour>
    <contour>
      <point x="493" y="381" type="line"/>
      <point x="522" y="383"/>
      <point x="540" y="407"/>
      <point x="540" y="440" type="curve" smooth="yes"/>
      <point x="540" y="524"/>
      <point x="444" y="561"/>
      <point x="334" y="582" type="curve" smooth="yes"/>
      <point x="225" y="603"/>
      <point x="135" y="639"/>
      <point x="135" y="718" type="curve" smooth="yes"/>
      <point x="135" y="748"/>
      <point x="149" y="775"/>
      <point x="180" y="797" type="curve"/>
      <point x="214" y="771" type="line"/>
      <point x="197" y="757"/>
      <point x="189" y="742"/>
      <point x="189" y="730" type="curve" smooth="yes"/>
      <point x="189" y="702"/>
      <point x="239" y="694"/>
      <point x="369" y="670" type="curve" smooth="yes"/>
      <point x="509" y="642"/>
      <point x="592" y="539"/>
      <point x="592" y="429" type="curve" smooth="yes"/>
      <point x="592" y="366"/>
      <point x="565" y="310"/>
      <point x="493" y="280" type="curve"/>
    </contour>
  </outline>
</glyph>
<glyph name="uni0993" format="1">
  <advance width="565"/>
  <unicode hex="0993"/>
  <note>
	uni0993
  </note>
  <outline>
    <contour>
      <point x="54" y="435" type="line"/>
      <point x="145" y="193"/>
      <point x="252" y="104"/>
      <point x="357" y="104" type="curve" smooth="yes"/>
      <point x="416" y="104"/>
      <point x="463" y="133"/>
      <point x="463" y="184" type="curve" smooth="yes"/>
      <point x="463" y="208"/>
      <point x="452" y="227"/>
      <point x="427" y="240" type="curve"/>
      <point x="479" y="245" type="line"/>
      <point x="463" y="219"/>
      <point x="431" y="192"/>
      <point x="392" y="192" type="curve" smooth="yes"/>
      <point x="349" y="192"/>
      <point x="318" y="225"/>
      <point x="318" y="265" type="curve" smooth="yes"/>
      <point x="318" y="304"/>
      <point x="348" y="337"/>
      <point x="390" y="337" type="curve" smooth="yes"/>
      <point x="429" y="337"/>
      <point x="457" y="310"/>
      <point x="474" y="273" type="curve"/>
      <point x="405" y="315" type="line"/>
      <point x="430" y="336"/>
      <point x="448" y="371"/>
      <point x="448" y="399" type="curve" smooth="yes"/>
      <point x="448" y="430"/>
      <point x="427" y="450"/>
      <point x="390" y="450" type="curve" smooth="yes"/>
      <point x="339" y="450"/>
      <point x="278" y="412"/>
      <point x="252" y="335" type="curve"/>
      <point x="208" y="405" type="line"/>
      <point x="259" y="417"/>
      <point x="302" y="380"/>
      <point x="302" y="333" type="curve" smooth="yes"/>
      <point x="302" y="294"/>
      <point x="272" y="264"/>
      <point x="233" y="264" type="curve" smooth="yes"/>
      <point x="187" y="264"/>
      <point x="149" y="307"/>
      <point x="149" y="363" type="curve" smooth="yes"/>
      <point x="149" y="452"/>
      <point x="245" y="530"/>
      <point x="347" y="530" type="curve" smooth="yes"/>
      <point x="450" y="530"/>
      <point x="525" y="449"/>
      <point x="525" y="362" type="curve" smooth="yes"/>
      <point x="525" y="309"/>
      <point x="497" y="246"/>
      <point x="460" y="229" type="curve"/>
      <point x="474" y="280" type="line"/>
      <point x="506" y="257"/>
      <point x="545" y="207"/>
      <point x="545" y="141" type="curve" smooth="yes"/>
      <point x="545" y="57"/>
      <point x="483" y="-12"/>
      <point x="382" y="-12" type="curve" smooth="yes"/>
      <point x="241" y="-12"/>
      <point x="103" y="123"/>
      <point x="0" y="411" type="curve"/>
    </contour>
  </outline>
</glyph>
<glyph name="uni0994" format="1">
  <advance width="600"/>
  <unicode hex="0994"/>
  <note>
	uni0994
  </note>
  <outline>
    <contour>
      <point x="54" y="435" type="line"/>
      <point x="145" y="193"/>
      <point x="252" y="104"/>
      <point x="357" y="104" type="curve" smooth="yes"/>
      <point x="416" y="104"/>
      <point x="463" y="133"/>
      <point x="463" y="184" type="curve" smooth="yes"/>
      <point x="463" y="208"/>
      <point x="452" y="227"/>
      <point x="427" y="240" type="curve"/>
      <point x="479" y="245" type="line"/>
      <point x="463" y="219"/>
      <point x="431" y="192"/>
      <point x="392" y="192" type="curve" smooth="yes"/>
      <point x="349" y="192"/>
      <point x="318" y="225"/>
      <point x="318" y="265" type="curve" smooth="yes"/>
      <point x="318" y="304"/>
      <point x="348" y="337"/>
      <point x="390" y="337" type="curve" smooth="yes"/>
      <point x="429" y="337"/>
      <point x="457" y="310"/>
      <point x="474" y="273" type="curve"/>
      <point x="405" y="315" type="line"/>
      <point x="430" y="336"/>
      <point x="448" y="371"/>
      <point x="448" y="399" type="curve" smooth="yes"/>
      <point x="448" y="430"/>
      <point x="427" y="450"/>
      <point x="390" y="450" type="curve" smooth="yes"/>
      <point x="339" y="450"/>
      <point x="278" y="412"/>
      <point x="252" y="335" type="curve"/>
      <point x="208" y="405" type="line"/>
      <point x="259" y="417"/>
      <point x="302" y="380"/>
      <point x="302" y="333" type="curve" smooth="yes"/>
      <point x="302" y="294"/>
      <point x="272" y="264"/>
      <point x="233" y="264" type="curve" smooth="yes"/>
      <point x="187" y="264"/>
      <point x="149" y="307"/>
      <point x="149" y="363" type="curve" smooth="yes"/>
      <point x="149" y="452"/>
      <point x="245" y="530"/>
      <point x="347" y="530" type="curve" smooth="yes"/>
      <point x="450" y="530"/>
      <point x="525" y="449"/>
      <point x="525" y="362" type="curve" smooth="yes"/>
      <point x="525" y="309"/>
      <point x="497" y="246"/>
      <point x="460" y="229" type="curve"/>
      <point x="474" y="280" type="line"/>
      <point x="506" y="257"/>
      <point x="545" y="207"/>
      <point x="545" y="141" type="curve" smooth="yes"/>
      <point x="545" y="57"/>
      <point x="483" y="-12"/>
      <point x="382" y="-12" type="curve" smooth="yes"/>
      <point x="241" y="-12"/>
      <point x="103" y="123"/>
      <point x="0" y="411" type="curve"/>
    </contour>
    <contour>
      <point x="463" y="331" type="line"/>
      <point x="517" y="345"/>
      <point x="550" y="385"/>
      <point x="550" y="440" type="curve" smooth="yes"/>
      <point x="550" y="524"/>
      <point x="449" y="561"/>
      <point x="334" y="582" type="curve" smooth="yes"/>
      <point x="225" y="603"/>
      <point x="135" y="639"/>
      <point x="135" y="718" type="curve" smooth="yes"/>
      <point x="135" y="748"/>
      <point x="149" y="775"/>
      <point x="180" y="797" type="curve"/>
      <point x="214" y="771" type="line"/>
      <point x="197" y="757"/>
      <point x="189" y="742"/>
      <point x="189" y="730" type="curve" smooth="yes"/>
      <point x="189" y="701"/>
      <point x="239" y="694"/>
      <point x="369" y="670" type="curve" smooth="yes"/>
      <point x="515" y="642"/>
      <point x="602" y="539"/>
      <point x="602" y="429" type="curve" smooth="yes"/>
      <point x="602" y="349"/>
      <point x="564" y="278"/>
      <point x="463" y="238" type="curve"/>
    </contour>
  </outline>
</glyph>
<glyph name="uni0995" format="1">
  <advance width="576"/>
  <unicode hex="0995"/>
  <note>
	uni0995
  </note>
  <outline>
    <contour>
      <point x="280" y="330"/>
      <point x="179" y="284"/>
      <point x="102" y="217" type="curve"/>
      <point x="66" y="272" type="line"/>
      <point x="189" y="247"/>
      <point x="296" y="140"/>
      <point x="338" y="23" type="curve"/>
      <point x="281" y="67" type="line"/>
      <point x="281" y="468" type="line"/>
      <point x="361" y="468" type="line"/>
      <point x="361" y="-40" type="line"/>
      <point x="316" y="-40" type="line"/>
      <point x="294" y="66"/>
      <point x="198" y="140"/>
      <point x="78" y="157" type="curve"/>
      <point x="-5" y="284" type="line"/>
      <point x="80" y="363"/>
      <point x="204" y="432"/>
      <point x="316" y="432" type="curve" smooth="yes"/>
      <point x="445" y="432"/>
      <point x="547" y="341"/>
      <point x="547" y="220" type="curve" smooth="yes"/>
      <point x="547" y="145"/>
      <point x="507" y="103"/>
      <point x="459" y="103" type="curve" smooth="yes"/>
      <point x="419" y="103"/>
      <point x="387" y="132"/>
      <point x="387" y="174" type="curve" smooth="yes"/>
      <point x="387" y="212"/>
      <point x="413" y="240"/>
      <point x="452" y="240" type="curve" smooth="yes"/>
      <point x="495" y="240"/>
      <point x="516" y="207"/>
      <point x="517" y="166" type="curve"/>
      <point x="455" y="185" type="line"/>
      <point x="470" y="198"/>
      <point x="482" y="220"/>
      <point x="482" y="245" type="curve" smooth="yes"/>
      <point x="482" y="294"/>
      <point x="435" y="330"/>
      <point x="362" y="330" type="curve" smooth="yes"/>
    </contour>
    <contour>
      <point x="-30" y="456" type="line"/>
      <point x="-30" y="521" type="line"/>
      <point x="606" y="521" type="line"/>
      <point x="606" y="456" type="line"/>
    </contour>
  </outline>
</glyph>
<glyph name="uni0996" format="1">
  <advance width="501"/>
  <unicode hex="0996"/>
  <note>
	uni0996
  </note>
  <outline>
    <contour>
      <point x="531" y="521" type="line"/>
      <point x="531" y="456" type="line"/>
      <point x="451" y="456" type="line"/>
      <point x="451" y="-40" type="line"/>
      <point x="406" y="-40" type="line"/>
      <point x="383" y="63"/>
      <point x="288" y="148"/>
      <point x="134" y="168" type="curve"/>
      <point x="57" y="290" type="line"/>
      <point x="199" y="290"/>
      <point x="268" y="342"/>
      <point x="268" y="394" type="curve" smooth="yes"/>
      <point x="268" y="423"/>
      <point x="246" y="442"/>
      <point x="222" y="453" type="curve"/>
      <point x="284" y="455" type="line"/>
      <point x="240" y="380"/>
      <point x="172" y="344"/>
      <point x="113" y="344" type="curve" smooth="yes"/>
      <point x="52" y="344"/>
      <point x="16" y="383"/>
      <point x="16" y="429" type="curve" smooth="yes"/>
      <point x="16" y="472"/>
      <point x="47" y="500"/>
      <point x="84" y="500" type="curve" smooth="yes"/>
      <point x="121" y="500"/>
      <point x="144" y="471"/>
      <point x="144" y="439" type="curve" smooth="yes"/>
      <point x="144" y="421"/>
      <point x="137" y="407"/>
      <point x="122" y="396" type="curve"/>
      <point x="87" y="455" type="line"/>
      <point x="97" y="452"/>
      <point x="109" y="451"/>
      <point x="116" y="451" type="curve" smooth="yes"/>
      <point x="152" y="451"/>
      <point x="198" y="483"/>
      <point x="223" y="531" type="curve"/>
      <point x="296" y="486"/>
      <point x="343" y="423"/>
      <point x="343" y="355" type="curve" smooth="yes"/>
      <point x="343" y="276"/>
      <point x="280" y="214"/>
      <point x="189" y="207" type="curve"/>
      <point x="152" y="269" type="line"/>
      <point x="296" y="239"/>
      <point x="371" y="144"/>
      <point x="421" y="38" type="curve"/>
      <point x="371" y="72" type="line"/>
      <point x="371" y="521" type="line"/>
    </contour>
  </outline>
</glyph>
<glyph name="uni0997" format="1">
  <advance width="507"/>
  <unicode hex="0997"/>
  <note>
	uni0997
  </note>
  <outline>
    <contour>
      <point x="537" y="521" type="line"/>
      <point x="537" y="456" type="line"/>
      <point x="457" y="456" type="line"/>
      <point x="457" y="-40" type="line"/>
      <point x="377" y="-40" type="line"/>
      <point x="377" y="244" type="line" smooth="yes"/>
      <point x="377" y="351"/>
      <point x="314" y="437"/>
      <point x="229" y="437" type="curve" smooth="yes"/>
      <point x="165" y="437"/>
      <point x="115" y="389"/>
      <point x="115" y="329" type="curve" smooth="yes"/>
      <point x="115" y="317"/>
      <point x="117" y="300"/>
      <point x="123" y="287" type="curve"/>
      <point x="76" y="339" type="line"/>
      <point x="118" y="368"/>
      <point x="152" y="379"/>
      <point x="185" y="379" type="curve" smooth="yes"/>
      <point x="269" y="379"/>
      <point x="316" y="305"/>
      <point x="316" y="236" type="curve" smooth="yes"/>
      <point x="316" y="178"/>
      <point x="282" y="116"/>
      <point x="211" y="61" type="curve"/>
      <point x="113" y="141" type="line"/>
      <point x="195" y="194"/>
      <point x="238" y="246"/>
      <point x="238" y="275" type="curve" smooth="yes"/>
      <point x="238" y="286"/>
      <point x="232" y="293"/>
      <point x="220" y="293" type="curve" smooth="yes"/>
      <point x="189" y="293"/>
      <point x="144" y="248"/>
      <point x="98" y="248" type="curve" smooth="yes"/>
      <point x="54" y="248"/>
      <point x="10" y="289"/>
      <point x="10" y="360" type="curve" smooth="yes"/>
      <point x="10" y="455"/>
      <point x="90" y="530"/>
      <point x="193" y="530" type="curve" smooth="yes"/>
      <point x="314" y="530"/>
      <point x="392" y="428"/>
      <point x="426" y="296" type="curve"/>
      <point x="377" y="294" type="line"/>
      <point x="377" y="521" type="line"/>
    </contour>
  </outline>
</glyph>
<glyph name="uni0998" format="1">
  <advance width="447"/>
  <unicode hex="0998"/>
  <note>
	uni0998
  </note>
  <outline>
    <contour>
      <point x="-30" y="456" type="line"/>
      <point x="-30" y="521" type="line"/>
      <point x="477" y="521" type="line"/>
      <point x="477" y="456" type="line"/>
    </contour>
    <contour>
      <point x="244" y="319" type="line"/>
      <point x="218" y="304"/>
      <point x="188" y="297"/>
      <point x="159" y="297" type="curve" smooth="yes"/>
      <point x="80" y="297"/>
      <point x="12" y="349"/>
      <point x="12" y="416" type="curve" smooth="yes"/>
      <point x="12" y="451"/>
      <point x="31" y="482"/>
      <point x="59" y="498" type="curve"/>
      <point x="206" y="456" type="line"/>
      <point x="148" y="456"/>
      <point x="111" y="421"/>
      <point x="111" y="388" type="curve" smooth="yes"/>
      <point x="111" y="366"/>
      <point x="128" y="353"/>
      <point x="149" y="353" type="curve" smooth="yes"/>
      <point x="164" y="353"/>
      <point x="179" y="360"/>
      <point x="192" y="371" type="curve"/>
    </contour>
    <contour>
      <point x="221" y="396" type="line"/>
      <point x="297" y="310" type="line"/>
      <point x="137" y="174" type="line"/>
      <point x="104" y="245" type="line"/>
      <point x="226" y="217"/>
      <point x="328" y="138"/>
      <point x="377" y="15" type="curve"/>
      <point x="317" y="59" type="line"/>
      <point x="317" y="467" type="line"/>
      <point x="397" y="467" type="line"/>
      <point x="397" y="-40" type="line"/>
      <point x="352" y="-40" type="line"/>
      <point x="335" y="46"/>
      <point x="242" y="128"/>
      <point x="114" y="139" type="curve"/>
      <point x="33" y="236" type="line"/>
    </contour>
  </outline>
</glyph>
<glyph name="uni0999" format="1">
  <advance width="499"/>
  <unicode hex="0999"/>
  <note>
	uni0999
  </note>
  <outline>
    <contour>
      <point x="225" y="323"/>
      <point x="133" y="396"/>
      <point x="60" y="497" type="curve"/>
      <point x="104" y="534" type="line"/>
      <point x="171" y="449"/>
      <point x="246" y="403"/>
      <point x="307" y="403" type="curve" smooth="yes"/>
      <point x="340" y="403"/>
      <point x="371" y="416"/>
      <point x="371" y="438" type="curve" smooth="yes"/>
      <point x="371" y="449"/>
      <point x="363" y="455"/>
      <point x="348" y="455" type="curve" smooth="yes"/>
      <point x="287" y="455"/>
      <point x="234" y="361"/>
      <point x="234" y="290" type="curve" smooth="yes"/>
      <point x="234" y="247"/>
      <point x="252" y="236"/>
      <point x="271" y="236" type="curve" smooth="yes"/>
      <point x="306" y="236"/>
      <point x="356" y="268"/>
      <point x="396" y="317" type="curve"/>
      <point x="445" y="272"/>
      <point x="481" y="209"/>
      <point x="481" y="139" type="curve" smooth="yes"/>
      <point x="481" y="39"/>
      <point x="408" y="-23"/>
      <point x="314" y="-23" type="curve" smooth="yes"/>
      <point x="144" y="-23"/>
      <point x="49" y="168"/>
      <point x="8" y="414" type="curve"/>
      <point x="66" y="427" type="line"/>
      <point x="104" y="209"/>
      <point x="176" y="89"/>
      <point x="296" y="89" type="curve" smooth="yes"/>
      <point x="362" y="89"/>
      <point x="414" y="131"/>
      <point x="414" y="184" type="curve" smooth="yes"/>
      <point x="414" y="205"/>
      <point x="400" y="229"/>
      <point x="380" y="243" type="curve"/>
      <point x="443" y="231" type="line"/>
      <point x="411" y="178"/>
      <point x="350" y="141"/>
      <point x="301" y="141" type="curve" smooth="yes"/>
      <point x="229" y="141"/>
      <point x="155" y="216"/>
      <point x="155" y="337" type="curve" smooth="yes"/>
      <point x="155" y="458"/>
      <point x="230" y="530"/>
      <point x="311" y="530" type="curve" smooth="yes"/>
      <point x="380" y="530"/>
      <point x="441" y="477"/>
      <point x="441" y="414" type="curve" smooth="yes"/>
      <point x="441" y="357"/>
      <point x="390" y="323"/>
      <point x="323" y="323" type="curve" smooth="yes"/>
    </contour>
  </outline>
</glyph>
<glyph name="uni099A" format="1">
  <advance width="398"/>
  <unicode hex="099A"/>
  <note>
	uni099A
  </note>
  <outline>
    <contour>
      <point x="122" y="74"/>
      <point x="129" y="67"/>
      <point x="139" y="67" type="curve" smooth="yes"/>
      <point x="187" y="67"/>
      <point x="276" y="184"/>
      <point x="276" y="236" type="curve" smooth="yes"/>
      <point x="276" y="253"/>
      <point x="270" y="256"/>
      <point x="242" y="261" type="curve" smooth="yes"/>
      <point x="152" y="277"/>
      <point x="105" y="334"/>
      <point x="82" y="440" type="curve"/>
      <point x="122" y="403" type="line"/>
      <point x="122" y="102" type="line" smooth="yes"/>
    </contour>
    <contour>
      <point x="122" y="467" type="line"/>
      <point x="122" y="425"/>
      <point x="147" y="385"/>
      <point x="202" y="374" type="curve" smooth="yes"/>
      <point x="276" y="359"/>
      <point x="300" y="341"/>
      <point x="333" y="303" type="curve" smooth="yes"/>
      <point x="356" y="277"/>
      <point x="379" y="242"/>
      <point x="379" y="199" type="curve" smooth="yes"/>
      <point x="379" y="110"/>
      <point x="258" y="-30"/>
      <point x="168" y="-30" type="curve" smooth="yes"/>
      <point x="116" y="-30"/>
      <point x="42" y="38"/>
      <point x="42" y="137" type="curve" smooth="yes"/>
      <point x="42" y="467" type="line"/>
    </contour>
    <contour>
      <point x="-30" y="456" type="line"/>
      <point x="-30" y="521" type="line"/>
      <point x="428" y="521" type="line"/>
      <point x="428" y="456" type="line"/>
    </contour>
  </outline>
</glyph>
<glyph name="uni099B" format="1">
  <advance width="452"/>
  <unicode hex="099B"/>
  <note>
	uni099B
  </note>
  <outline>
    <contour>
      <point x="196" y="374" type="line"/>
      <point x="247" y="362"/>
      <point x="275" y="324"/>
      <point x="275" y="294" type="curve" smooth="yes"/>
      <point x="275" y="243"/>
      <point x="211" y="188"/>
      <point x="150" y="188" type="curve" smooth="yes"/>
      <point x="87" y="188"/>
      <point x="34" y="256"/>
      <point x="34" y="314" type="curve" smooth="yes"/>
      <point x="34" y="467" type="line"/>
      <point x="113" y="467" type="line"/>
      <point x="116" y="423"/>
      <point x="155" y="399"/>
      <point x="195" y="399" type="curve" smooth="yes"/>
      <point x="208" y="399"/>
      <point x="238" y="401"/>
      <point x="252" y="401" type="curve" smooth="yes"/>
      <point x="343" y="401"/>
      <point x="420" y="327"/>
      <point x="420" y="244" type="curve" smooth="yes"/>
      <point x="420" y="160"/>
      <point x="349" y="69"/>
      <point x="206" y="54" type="curve"/>
      <point x="201" y="115" type="line"/>
      <point x="300" y="84"/>
      <point x="381" y="35"/>
      <point x="482" y="-45" type="curve"/>
      <point x="444" y="-93" type="line"/>
      <point x="334" y="-7"/>
      <point x="243" y="32"/>
      <point x="110" y="39" type="curve"/>
      <point x="41" y="171" type="line"/>
      <point x="81" y="156"/>
      <point x="118" y="148"/>
      <point x="163" y="148" type="curve" smooth="yes"/>
      <point x="248" y="148"/>
      <point x="328" y="222"/>
      <point x="328" y="285" type="curve" smooth="yes"/>
      <point x="328" y="309"/>
      <point x="315" y="324"/>
      <point x="278" y="324" type="curve" smooth="yes"/>
      <point x="269" y="324"/>
      <point x="272" y="323"/>
      <point x="212" y="323" type="curve" smooth="yes"/>
      <point x="159" y="323"/>
      <point x="104" y="355"/>
      <point x="90" y="424" type="curve"/>
      <point x="114" y="458" type="line"/>
      <point x="114" y="290" type="line" smooth="yes"/>
      <point x="114" y="275"/>
      <point x="118" y="269"/>
      <point x="127" y="269" type="curve" smooth="yes"/>
      <point x="145" y="269"/>
      <point x="181" y="299"/>
      <point x="181" y="318" type="curve" smooth="yes"/>
      <point x="181" y="323"/>
      <point x="179" y="327"/>
      <point x="167" y="331" type="curve"/>
    </contour>
    <contour>
      <point x="-30" y="456" type="line"/>
      <point x="-30" y="521" type="line"/>
      <point x="477" y="521" type="line"/>
      <point x="477" y="456" type="line"/>
    </contour>
  </outline>
</glyph>
<glyph name="uni099C" format="1">
  <advance width="608"/>
  <unicode hex="099C"/>
  <note>
	uni099C
  </note>
  <outline>
    <contour>
      <point x="300" y="494" type="line"/>
      <point x="331" y="432"/>
      <point x="375" y="405"/>
      <point x="419" y="405" type="curve" smooth="yes"/>
      <point x="440" y="405"/>
      <point x="470" y="411"/>
      <point x="494" y="424" type="curve"/>
      <point x="581" y="320" type="line"/>
      <point x="533" y="267"/>
      <point x="514" y="212"/>
      <point x="514" y="143" type="curve" smooth="yes"/>
      <point x="514" y="111"/>
      <point x="518" y="47"/>
      <point x="529" y="-13" type="curve"/>
      <point x="472" y="-24" type="line"/>
      <point x="451" y="68"/>
      <point x="442" y="145"/>
      <point x="442" y="200" type="curve" smooth="yes"/>
      <point x="442" y="276"/>
      <point x="460" y="343"/>
      <point x="496" y="385" type="curve"/>
      <point x="534" y="335" type="line"/>
      <point x="505" y="320"/>
      <point x="478" y="313"/>
      <point x="447" y="313" type="curve" smooth="yes"/>
      <point x="380" y="313"/>
      <point x="335" y="345"/>
      <point x="283" y="425" type="curve"/>
      <point x="318" y="419" type="line"/>
      <point x="219" y="352"/>
      <point x="204" y="315"/>
      <point x="204" y="298" type="curve" smooth="yes"/>
      <point x="204" y="285"/>
      <point x="213" y="280"/>
      <point x="225" y="280" type="curve" smooth="yes"/>
      <point x="246" y="280"/>
      <point x="277" y="296"/>
      <point x="326" y="335" type="curve"/>
      <point x="382" y="291"/>
      <point x="418" y="228"/>
      <point x="418" y="167" type="curve" smooth="yes"/>
      <point x="418" y="88"/>
      <point x="359" y="20"/>
      <point x="269" y="20" type="curve" smooth="yes"/>
      <point x="144" y="20"/>
      <point x="44" y="151"/>
      <point x="4" y="407" type="curve"/>
      <point x="59" y="421" type="line"/>
      <point x="84" y="262"/>
      <point x="142" y="133"/>
      <point x="248" y="133" type="curve" smooth="yes"/>
      <point x="300" y="133"/>
      <point x="344" y="164"/>
      <point x="344" y="204" type="curve" smooth="yes"/>
      <point x="344" y="228"/>
      <point x="329" y="254"/>
      <point x="311" y="265" type="curve"/>
      <point x="383" y="242" type="line"/>
      <point x="350" y="207"/>
      <point x="301" y="186"/>
      <point x="262" y="186" type="curve" smooth="yes"/>
      <point x="183" y="186"/>
      <point x="128" y="272"/>
      <point x="128" y="333" type="curve" smooth="yes"/>
      <point x="128" y="391"/>
      <point x="179" y="449"/>
      <point x="248" y="490" type="curve"/>
    </contour>
    <contour>
      <point x="-30" y="456" type="line"/>
      <point x="-30" y="521" type="line"/>
      <point x="638" y="521" type="line"/>
      <point x="638" y="456" type="line"/>
    </contour>
  </outline>
</glyph>
<glyph name="uni099D" format="1">
  <advance width="576"/>
  <unicode hex="099D"/>
  <note>
	uni099D
  </note>
  <outline>
    <contour>
      <point x="269" y="310"/>
      <point x="171" y="262"/>
      <point x="94" y="203" type="curve"/>
      <point x="81" y="273" type="line"/>
      <point x="204" y="242"/>
      <point x="307" y="152"/>
      <point x="353" y="39" type="curve"/>
      <point x="304" y="72" type="line"/>
      <point x="304" y="466" type="line"/>
      <point x="384" y="466" type="line"/>
      <point x="384" y="-40" type="line"/>
      <point x="339" y="-40" type="line"/>
      <point x="307" y="86"/>
      <point x="208" y="141"/>
      <point x="87" y="154" type="curve"/>
      <point x="-5" y="283" type="line"/>
      <point x="95" y="359"/>
      <point x="233" y="423"/>
      <point x="332" y="444" type="curve"/>
      <point x="368" y="338" type="line"/>
    </contour>
    <contour>
      <point x="-30" y="456" type="line"/>
      <point x="-30" y="521" type="line"/>
      <point x="384" y="521" type="line"/>
      <point x="384" y="456" type="line"/>
    </contour>
    <contour>
      <point x="367" y="257" type="line"/>
      <point x="431" y="217"/>
      <point x="473" y="158"/>
      <point x="494" y="83" type="curve"/>
      <point x="446" y="126" type="line"/>
      <point x="446" y="521" type="line"/>
      <point x="606" y="521" type="line"/>
      <point x="606" y="456" type="line"/>
      <point x="526" y="456" type="line"/>
      <point x="526" y="11" type="line"/>
      <point x="481" y="11" type="line"/>
      <point x="471" y="82"/>
      <point x="440" y="135"/>
      <point x="375" y="154" type="curve"/>
    </contour>
  </outline>
</glyph>
<glyph name="uni099E" format="1">
  <advance width="773"/>
  <unicode hex="099E"/>
  <note>
	uni099E
  </note>
  <outline>
    <contour>
      <point x="10" y="311"/>
      <point x="25" y="356"/>
      <point x="55" y="398" type="curve"/>
      <point x="100" y="374" type="line"/>
      <point x="84" y="345"/>
      <point x="69" y="308"/>
      <point x="69" y="266" type="curve" smooth="yes"/>
      <point x="69" y="193"/>
      <point x="116" y="149"/>
      <point x="188" y="149" type="curve" smooth="yes"/>
      <point x="227" y="149"/>
      <point x="287" y="162"/>
      <point x="321" y="162" type="curve" smooth="yes"/>
      <point x="386" y="162"/>
      <point x="440" y="116"/>
      <point x="463" y="33" type="curve"/>
      <point x="422" y="81" type="line"/>
      <point x="422" y="428" type="line" smooth="yes"/>
      <point x="422" y="439"/>
      <point x="417" y="448"/>
      <point x="406" y="448" type="curve" smooth="yes"/>
      <point x="371" y="448"/>
      <point x="272" y="353"/>
      <point x="272" y="287" type="curve" smooth="yes"/>
      <point x="272" y="276"/>
      <point x="275" y="260"/>
      <point x="279" y="251" type="curve"/>
      <point x="225" y="291" type="line"/>
      <point x="235" y="317"/>
      <point x="261" y="338"/>
      <point x="291" y="338" type="curve" smooth="yes"/>
      <point x="327" y="338"/>
      <point x="359" y="306"/>
      <point x="359" y="267" type="curve" smooth="yes"/>
      <point x="359" y="226"/>
      <point x="325" y="193"/>
      <point x="275" y="193" type="curve" smooth="yes"/>
      <point x="214" y="193"/>
      <point x="164" y="244"/>
      <point x="164" y="311" type="curve" smooth="yes"/>
      <point x="164" y="413"/>
      <point x="281" y="530"/>
      <point x="367" y="530" type="curve" smooth="yes"/>
      <point x="437" y="530"/>
      <point x="502" y="451"/>
      <point x="502" y="383" type="curve" smooth="yes"/>
      <point x="502" y="-40" type="line"/>
      <point x="457" y="-40" type="line"/>
      <point x="449" y="22"/>
      <point x="425" y="55"/>
      <point x="365" y="55" type="curve" smooth="yes"/>
      <point x="326" y="55"/>
      <point x="267" y="41"/>
      <point x="221" y="41" type="curve" smooth="yes"/>
      <point x="99" y="41"/>
      <point x="10" y="137"/>
      <point x="10" y="260" type="curve" smooth="yes"/>
    </contour>
    <contour>
      <point x="446" y="344" type="line"/>
      <point x="503" y="448"/>
      <point x="563" y="495"/>
      <point x="616" y="495" type="curve" smooth="yes"/>
      <point x="684" y="495"/>
      <point x="743" y="426"/>
      <point x="743" y="350" type="curve" smooth="yes"/>
      <point x="743" y="302"/>
      <point x="720" y="262"/>
      <point x="652" y="220" type="curve"/>
      <point x="659" y="304" type="line"/>
      <point x="699" y="286"/>
      <point x="743" y="231"/>
      <point x="743" y="171" type="curve" smooth="yes"/>
      <point x="743" y="108"/>
      <point x="696" y="63"/>
      <point x="639" y="63" type="curve" smooth="yes"/>
      <point x="565" y="63"/>
      <point x="507" y="123"/>
      <point x="460" y="244" type="curve"/>
    </contour>
    <contour>
      <point x="518" y="213"/>
      <point x="566" y="151"/>
      <point x="622" y="151" type="curve" smooth="yes"/>
      <point x="653" y="151"/>
      <point x="674" y="172"/>
      <point x="674" y="201" type="curve" smooth="yes"/>
      <point x="674" y="228"/>
      <point x="653" y="249"/>
      <point x="631" y="258" type="curve"/>
      <point x="679" y="247" type="line"/>
      <point x="665" y="221"/>
      <point x="634" y="207"/>
      <point x="608" y="207" type="curve" smooth="yes"/>
      <point x="571" y="207"/>
      <point x="543" y="236"/>
      <point x="543" y="271" type="curve" smooth="yes"/>
      <point x="543" y="306"/>
      <point x="572" y="333"/>
      <point x="605" y="333" type="curve" smooth="yes"/>
      <point x="634" y="333"/>
      <point x="659" y="314"/>
      <point x="671" y="296" type="curve"/>
      <point x="599" y="290" type="line"/>
      <point x="655" y="325"/>
      <point x="672" y="358"/>
      <point x="672" y="379" type="curve" smooth="yes"/>
      <point x="672" y="395"/>
      <point x="664" y="406"/>
      <point x="642" y="406" type="curve" smooth="yes"/>
      <point x="596" y="406"/>
      <point x="536" y="361"/>
      <point x="494" y="260" type="curve"/>
      <point x="499" y="286" type="line"/>
    </contour>
  </outline>
</glyph>
<glyph name="uni099F" format="1">
  <advance width="422"/>
  <unicode hex="099F"/>
  <note>
	uni099F
  </note>
  <outline>
    <contour>
      <point x="122" y="467" type="line"/>
      <point x="122" y="101" type="line" smooth="yes"/>
      <point x="122" y="74"/>
      <point x="127" y="66"/>
      <point x="140" y="66" type="curve" smooth="yes"/>
      <point x="192" y="66"/>
      <point x="281" y="196"/>
      <point x="281" y="274" type="curve"/>
      <point x="325" y="220" type="line"/>
      <point x="313" y="209"/>
      <point x="298" y="204"/>
      <point x="279" y="204" type="curve" smooth="yes"/>
      <point x="230" y="204"/>
      <point x="193" y="240"/>
      <point x="193" y="285" type="curve" smooth="yes"/>
      <point x="193" y="330"/>
      <point x="229" y="369"/>
      <point x="281" y="369" type="curve" smooth="yes"/>
      <point x="343" y="369"/>
      <point x="387" y="312"/>
      <point x="387" y="245" type="curve" smooth="yes"/>
      <point x="387" y="131"/>
      <point x="262" y="-30"/>
      <point x="171" y="-30" type="curve" smooth="yes"/>
      <point x="111" y="-30"/>
      <point x="42" y="40"/>
      <point x="42" y="138" type="curve" smooth="yes"/>
      <point x="42" y="467" type="line"/>
    </contour>
    <contour>
      <point x="-30" y="456" type="line"/>
      <point x="-30" y="521" type="line"/>
      <point x="452" y="521" type="line"/>
      <point x="452" y="456" type="line"/>
    </contour>
    <contour>
      <point x="302" y="516" type="line"/>
      <point x="309" y="525"/>
      <point x="312" y="535"/>
      <point x="312" y="545" type="curve" smooth="yes"/>
      <point x="312" y="565"/>
      <point x="301" y="576"/>
      <point x="269" y="576" type="curve" smooth="yes"/>
      <point x="237" y="576"/>
      <point x="154" y="564"/>
      <point x="113" y="564" type="curve" smooth="yes"/>
      <point x="32" y="564"/>
      <point x="-29" y="610"/>
      <point x="-29" y="678" type="curve" smooth="yes"/>
      <point x="-29" y="712"/>
      <point x="-14" y="741"/>
      <point x="6" y="764" type="curve"/>
      <point x="54" y="738" type="line"/>
      <point x="36" y="721"/>
      <point x="29" y="703"/>
      <point x="29" y="691" type="curve" smooth="yes"/>
      <point x="29" y="673"/>
      <point x="43" y="663"/>
      <point x="78" y="663" type="curve" smooth="yes"/>
      <point x="116" y="663"/>
      <point x="183" y="675"/>
      <point x="222" y="675" type="curve" smooth="yes"/>
      <point x="316" y="675"/>
      <point x="372" y="606"/>
      <point x="381" y="515" type="curve"/>
    </contour>
  </outline>
</glyph>
<glyph name="uni09A0" format="1">
  <advance width="405"/>
  <unicode hex="09A0"/>
  <note>
	uni09A0
  </note>
  <outline>
    <contour>
      <point x="151" y="481" type="line"/>
      <point x="80" y="578"/>
      <point x="46" y="634"/>
      <point x="46" y="689" type="curve" smooth="yes"/>
      <point x="46" y="725"/>
      <point x="60" y="757"/>
      <point x="87" y="778" type="curve"/>
      <point x="166" y="729" type="line"/>
      <point x="140" y="705"/>
      <point x="124" y="681"/>
      <point x="124" y="649" type="curve" smooth="yes"/>
      <point x="124" y="611"/>
      <point x="148" y="561"/>
      <point x="217" y="485" type="curve"/>
    </contour>
    <contour>
      <point x="90" y="154" type="line"/>
      <point x="100" y="102"/>
      <point x="133" y="73"/>
      <point x="182" y="73" type="curve" smooth="yes"/>
      <point x="250" y="73"/>
      <point x="303" y="129"/>
      <point x="303" y="208" type="curve" smooth="yes"/>
      <point x="303" y="270"/>
      <point x="270" y="343"/>
      <point x="216" y="414" type="curve"/>
      <point x="202" y="463" type="line"/>
      <point x="224" y="426"/>
      <point x="242" y="370"/>
      <point x="242" y="317" type="curve" smooth="yes"/>
      <point x="242" y="235"/>
      <point x="201" y="154"/>
      <point x="82" y="126" type="curve"/>
    </contour>
    <contour>
      <point x="223" y="483" type="line"/>
      <point x="337" y="349"/>
      <point x="380" y="258"/>
      <point x="380" y="169" type="curve" smooth="yes"/>
      <point x="380" y="49"/>
      <point x="300" y="-17"/>
      <point x="211" y="-17" type="curve" smooth="yes"/>
      <point x="104" y="-17"/>
      <point x="17" y="80"/>
      <point x="3" y="221" type="curve"/>
      <point x="112" y="248"/>
      <point x="170" y="310"/>
      <point x="170" y="396" type="curve" smooth="yes"/>
      <point x="170" y="422"/>
      <point x="165" y="447"/>
      <point x="155" y="471" type="curve"/>
    </contour>
    <contour>
      <point x="-30" y="456" type="line"/>
      <point x="-30" y="521" type="line"/>
      <point x="435" y="521" type="line"/>
      <point x="435" y="456" type="line"/>
    </contour>
  </outline>
</glyph>
<glyph name="uni09A1" format="1">
  <advance width="513"/>
  <unicode hex="09A1"/>
  <note>
	uni09A1
  </note>
  <outline>
    <contour>
      <point x="253" y="466" type="line"/>
      <point x="253" y="294" type="line" smooth="yes"/>
      <point x="253" y="283"/>
      <point x="256" y="275"/>
      <point x="266" y="275" type="curve" smooth="yes"/>
      <point x="289" y="275"/>
      <point x="335" y="317"/>
      <point x="380" y="387" type="curve"/>
      <point x="434" y="340"/>
      <point x="487" y="270"/>
      <point x="487" y="173" type="curve" smooth="yes"/>
      <point x="487" y="62"/>
      <point x="417" y="-18"/>
      <point x="306" y="-18" type="curve" smooth="yes"/>
      <point x="176" y="-18"/>
      <point x="68" y="90"/>
      <point x="-10" y="404" type="curve"/>
      <point x="48" y="422" type="line"/>
      <point x="106" y="178"/>
      <point x="185" y="98"/>
      <point x="285" y="98" type="curve" smooth="yes"/>
      <point x="362" y="98"/>
      <point x="417" y="146"/>
      <point x="417" y="210" type="curve" smooth="yes"/>
      <point x="417" y="248"/>
      <point x="398" y="285"/>
      <point x="360" y="307" type="curve"/>
      <point x="432" y="277" type="line"/>
      <point x="400" y="216"/>
      <point x="339" y="174"/>
      <point x="293" y="174" type="curve" smooth="yes"/>
      <point x="230" y="174"/>
      <point x="173" y="254"/>
      <point x="173" y="329" type="curve" smooth="yes"/>
      <point x="173" y="466" type="line"/>
    </contour>
    <contour>
      <point x="-30" y="456" type="line"/>
      <point x="-30" y="521" type="line"/>
      <point x="543" y="521" type="line"/>
      <point x="543" y="456" type="line"/>
    </contour>
  </outline>
</glyph>
<glyph name="uni09A2" format="1">
  <advance width="422"/>
  <unicode hex="09A2"/>
  <note>
	uni09A2
  </note>
  <outline>
    <contour>
      <point x="122" y="467" type="line"/>
      <point x="122" y="101" type="line" smooth="yes"/>
      <point x="122" y="74"/>
      <point x="127" y="66"/>
      <point x="140" y="66" type="curve" smooth="yes"/>
      <point x="192" y="66"/>
      <point x="281" y="196"/>
      <point x="281" y="274" type="curve"/>
      <point x="325" y="220" type="line"/>
      <point x="313" y="209"/>
      <point x="298" y="204"/>
      <point x="279" y="204" type="curve" smooth="yes"/>
      <point x="230" y="204"/>
      <point x="193" y="240"/>
      <point x="193" y="285" type="curve" smooth="yes"/>
      <point x="193" y="330"/>
      <point x="229" y="369"/>
      <point x="281" y="369" type="curve" smooth="yes"/>
      <point x="343" y="369"/>
      <point x="387" y="312"/>
      <point x="387" y="245" type="curve" smooth="yes"/>
      <point x="387" y="131"/>
      <point x="262" y="-30"/>
      <point x="171" y="-30" type="curve" smooth="yes"/>
      <point x="111" y="-30"/>
      <point x="42" y="40"/>
      <point x="42" y="138" type="curve" smooth="yes"/>
      <point x="42" y="467" type="line"/>
    </contour>
    <contour>
      <point x="-30" y="456" type="line"/>
      <point x="-30" y="521" type="line"/>
      <point x="452" y="521" type="line"/>
      <point x="452" y="456" type="line"/>
    </contour>
  </outline>
</glyph>
<glyph name="uni09A3" format="1">
  <advance width="467"/>
  <unicode hex="09A3"/>
  <note>
	uni09A3
  </note>
  <outline>
    <contour>
      <point x="337" y="521" type="line"/>
      <point x="497" y="521" type="line"/>
      <point x="497" y="456" type="line"/>
      <point x="417" y="456" type="line"/>
      <point x="417" y="-40" type="line"/>
      <point x="337" y="-40" type="line"/>
    </contour>
    <contour>
      <point x="338" y="231" type="line"/>
      <point x="329" y="366"/>
      <point x="276" y="437"/>
      <point x="202" y="437" type="curve" smooth="yes"/>
      <point x="145" y="437"/>
      <point x="104" y="396"/>
      <point x="104" y="339" type="curve" smooth="yes"/>
      <point x="104" y="292"/>
      <point x="131" y="261"/>
      <point x="161" y="261" type="curve" smooth="yes"/>
      <point x="169" y="261"/>
      <point x="182" y="263"/>
      <point x="191" y="266" type="curve"/>
      <point x="181" y="222" type="line"/>
      <point x="144" y="241"/>
      <point x="131" y="265"/>
      <point x="131" y="289" type="curve" smooth="yes"/>
      <point x="131" y="325"/>
      <point x="159" y="354"/>
      <point x="199" y="354" type="curve" smooth="yes"/>
      <point x="244" y="354"/>
      <point x="276" y="318"/>
      <point x="276" y="274" type="curve" smooth="yes"/>
      <point x="276" y="228"/>
      <point x="240" y="191"/>
      <point x="180" y="191" type="curve" smooth="yes"/>
      <point x="92" y="191"/>
      <point x="10" y="269"/>
      <point x="10" y="371" type="curve" smooth="yes"/>
      <point x="10" y="461"/>
      <point x="74" y="530"/>
      <point x="173" y="530" type="curve" smooth="yes"/>
      <point x="266" y="530"/>
      <point x="357" y="469"/>
      <point x="384" y="247" type="curve"/>
    </contour>
  </outline>
</glyph>
<glyph name="uni09A4" format="1">
  <advance width="545"/>
  <unicode hex="09A4"/>
  <note>
	uni09A4
  </note>
  <outline>
    <contour>
      <point x="-30" y="521" type="line"/>
      <point x="575" y="521" type="line"/>
      <point x="575" y="456" type="line"/>
      <point x="-30" y="456" type="line"/>
    </contour>
    <contour>
      <point x="184" y="368"/>
      <point x="233" y="418"/>
      <point x="314" y="418" type="curve" smooth="yes"/>
      <point x="424" y="418"/>
      <point x="511" y="324"/>
      <point x="511" y="203" type="curve" smooth="yes"/>
      <point x="511" y="88"/>
      <point x="432" y="6"/>
      <point x="324" y="6" type="curve" smooth="yes"/>
      <point x="189" y="6"/>
      <point x="75" y="135"/>
      <point x="-5" y="405" type="curve"/>
      <point x="52" y="424" type="line"/>
      <point x="115" y="217"/>
      <point x="191" y="125"/>
      <point x="299" y="125" type="curve" smooth="yes"/>
      <point x="379" y="125"/>
      <point x="437" y="175"/>
      <point x="437" y="245" type="curve" smooth="yes"/>
      <point x="437" y="298"/>
      <point x="403" y="334"/>
      <point x="357" y="334" type="curve" smooth="yes"/>
      <point x="340" y="334"/>
      <point x="319" y="329"/>
      <point x="305" y="320" type="curve"/>
      <point x="304" y="372" type="line"/>
      <point x="337" y="364"/>
      <point x="359" y="332"/>
      <point x="359" y="296" type="curve" smooth="yes"/>
      <point x="359" y="248"/>
      <point x="322" y="213"/>
      <point x="275" y="213" type="curve" smooth="yes"/>
      <point x="224" y="213"/>
      <point x="184" y="255"/>
      <point x="184" y="309" type="curve" smooth="yes"/>
    </contour>
  </outline>
</glyph>
<glyph name="uni09A5" format="1">
  <advance width="497"/>
  <unicode hex="09A5"/>
  <note>
	uni09A5
  </note>
  <outline>
    <contour>
      <point x="337" y="285"/>
      <point x="290" y="210"/>
      <point x="175" y="189" type="curve"/>
      <point x="148" y="249" type="line"/>
      <point x="276" y="219"/>
      <point x="374" y="137"/>
      <point x="420" y="24" type="curve"/>
      <point x="367" y="72" type="line"/>
      <point x="367" y="521" type="line"/>
      <point x="527" y="521" type="line"/>
      <point x="527" y="456" type="line"/>
      <point x="447" y="456" type="line"/>
      <point x="447" y="-40" type="line"/>
      <point x="402" y="-40" type="line"/>
      <point x="375" y="61"/>
      <point x="290" y="125"/>
      <point x="130" y="148" type="curve"/>
      <point x="53" y="272" type="line"/>
      <point x="183" y="272"/>
      <point x="262" y="339"/>
      <point x="262" y="400" type="curve" smooth="yes"/>
      <point x="262" y="432"/>
      <point x="240" y="449"/>
      <point x="206" y="449" type="curve" smooth="yes"/>
      <point x="163" y="449"/>
      <point x="130" y="422"/>
      <point x="108" y="385" type="curve"/>
      <point x="96" y="444" type="line"/>
      <point x="141" y="444"/>
      <point x="170" y="415"/>
      <point x="170" y="380" type="curve" smooth="yes"/>
      <point x="170" y="344"/>
      <point x="140" y="316"/>
      <point x="101" y="316" type="curve" smooth="yes"/>
      <point x="57" y="316"/>
      <point x="22" y="352"/>
      <point x="22" y="404" type="curve" smooth="yes"/>
      <point x="22" y="472"/>
      <point x="83" y="529"/>
      <point x="169" y="529" type="curve" smooth="yes"/>
      <point x="272" y="529"/>
      <point x="337" y="447"/>
      <point x="337" y="360" type="curve" smooth="yes"/>
    </contour>
  </outline>
</glyph>
<glyph name="uni09A6" format="1">
  <advance width="442"/>
  <unicode hex="09A6"/>
  <note>
	uni09A6
  </note>
  <outline>
    <contour>
      <point x="124" y="467" type="line"/>
      <point x="124" y="170" type="line"/>
      <point x="79" y="217" type="line"/>
      <point x="131" y="306"/>
      <point x="220" y="382"/>
      <point x="320" y="417" type="curve"/>
      <point x="417" y="330" type="line"/>
      <point x="357" y="268"/>
      <point x="333" y="209"/>
      <point x="333" y="132" type="curve" smooth="yes"/>
      <point x="333" y="90"/>
      <point x="340" y="25"/>
      <point x="352" y="-41" type="curve"/>
      <point x="291" y="-54" type="line"/>
      <point x="269" y="32"/>
      <point x="258" y="119"/>
      <point x="258" y="176" type="curve" smooth="yes"/>
      <point x="258" y="262"/>
      <point x="283" y="328"/>
      <point x="321" y="367" type="curve"/>
      <point x="342" y="305" type="line"/>
      <point x="267" y="268"/>
      <point x="191" y="200"/>
      <point x="131" y="98" type="curve"/>
      <point x="44" y="189" type="line"/>
      <point x="44" y="467" type="line"/>
    </contour>
    <contour>
      <point x="-30" y="456" type="line"/>
      <point x="-30" y="521" type="line"/>
      <point x="472" y="521" type="line"/>
      <point x="472" y="456" type="line"/>
    </contour>
  </outline>
</glyph>
<glyph name="uni09A7" format="1">
  <advance width="429"/>
  <unicode hex="09A7"/>
  <note>
	uni09A7
  </note>
  <outline>
    <contour>
      <point x="246" y="337" type="line"/>
      <point x="228" y="328"/>
      <point x="212" y="324"/>
      <point x="191" y="324" type="curve" smooth="yes"/>
      <point x="115" y="324"/>
      <point x="47" y="376"/>
      <point x="47" y="444" type="curve" smooth="yes"/>
      <point x="47" y="503"/>
      <point x="98" y="541"/>
      <point x="153" y="541" type="curve" smooth="yes"/>
      <point x="206" y="541"/>
      <point x="237" y="507"/>
      <point x="237" y="470" type="curve" smooth="yes"/>
      <point x="237" y="436"/>
      <point x="210" y="415"/>
      <point x="180" y="415" type="curve" smooth="yes"/>
      <point x="152" y="415"/>
      <point x="127" y="434"/>
      <point x="127" y="461" type="curve" smooth="yes"/>
      <point x="127" y="475"/>
      <point x="134" y="493"/>
      <point x="153" y="501" type="curve"/>
      <point x="220" y="457" type="line"/>
      <point x="206" y="462"/>
      <point x="191" y="464"/>
      <point x="180" y="464" type="curve" smooth="yes"/>
      <point x="145" y="464"/>
      <point x="126" y="444"/>
      <point x="126" y="423" type="curve" smooth="yes"/>
      <point x="126" y="406"/>
      <point x="138" y="383"/>
      <point x="180" y="383" type="curve" smooth="yes"/>
      <point x="196" y="383"/>
      <point x="210" y="386"/>
      <point x="229" y="396" type="curve"/>
    </contour>
    <contour>
      <point x="299" y="521" type="line"/>
      <point x="459" y="521" type="line"/>
      <point x="459" y="456" type="line"/>
      <point x="379" y="456" type="line"/>
      <point x="379" y="-40" type="line"/>
      <point x="334" y="-40" type="line"/>
      <point x="324" y="38"/>
      <point x="236" y="115"/>
      <point x="99" y="132" type="curve"/>
      <point x="15" y="270" type="line"/>
      <point x="110" y="336"/>
      <point x="209" y="388"/>
      <point x="317" y="439" type="curve"/>
      <point x="347" y="330" type="line"/>
      <point x="258" y="289"/>
      <point x="175" y="244"/>
      <point x="94" y="185" type="curve"/>
      <point x="68" y="253" type="line"/>
      <point x="185" y="221"/>
      <point x="293" y="158"/>
      <point x="349" y="38" type="curve"/>
      <point x="299" y="62" type="line"/>
    </contour>
  </outline>
</glyph>
<glyph name="uni09A8" format="1">
  <advance width="449"/>
  <unicode hex="09A8"/>
  <note>
	uni09A8
  </note>
  <outline>
    <contour>
      <point x="399" y="467" type="line"/>
      <point x="399" y="-40" type="line"/>
      <point x="353" y="-40" type="line"/>
      <point x="338" y="119"/>
      <point x="280" y="231"/>
      <point x="194" y="231" type="curve" smooth="yes"/>
      <point x="180" y="231"/>
      <point x="165" y="228"/>
      <point x="151" y="221" type="curve"/>
      <point x="149" y="306" type="line"/>
      <point x="189" y="288"/>
      <point x="216" y="258"/>
      <point x="216" y="213" type="curve" smooth="yes"/>
      <point x="216" y="158"/>
      <point x="175" y="115"/>
      <point x="119" y="115" type="curve" smooth="yes"/>
      <point x="60" y="115"/>
      <point x="11" y="162"/>
      <point x="11" y="228" type="curve" smooth="yes"/>
      <point x="11" y="295"/>
      <point x="60" y="353"/>
      <point x="146" y="353" type="curve" smooth="yes"/>
      <point x="265" y="353"/>
      <point x="344" y="239"/>
      <point x="384" y="63" type="curve"/>
      <point x="319" y="151" type="line"/>
      <point x="319" y="467" type="line"/>
    </contour>
    <contour>
      <point x="-30" y="456" type="line"/>
      <point x="-30" y="521" type="line"/>
      <point x="479" y="521" type="line"/>
      <point x="479" y="456" type="line"/>
    </contour>
  </outline>
</glyph>
<glyph name="uni09AA" format="1">
  <advance width="557"/>
  <unicode hex="09AA"/>
  <note>
	uni09AA
  </note>
  <outline>
    <contour>
      <point x="396" y="344" type="line"/>
      <point x="193" y="147" type="line"/>
      <point x="104" y="221" type="line"/>
      <point x="136" y="247" type="line" smooth="yes"/>
      <point x="165" y="271"/>
      <point x="174" y="290"/>
      <point x="174" y="307" type="curve" smooth="yes"/>
      <point x="174" y="324"/>
      <point x="165" y="334"/>
      <point x="148" y="334" type="curve" smooth="yes"/>
      <point x="116" y="334"/>
      <point x="101" y="299"/>
      <point x="68" y="299" type="curve" smooth="yes"/>
      <point x="41" y="299"/>
      <point x="10" y="323"/>
      <point x="10" y="366" type="curve" smooth="yes"/>
      <point x="10" y="439"/>
      <point x="99" y="530"/>
      <point x="207" y="530" type="curve" smooth="yes"/>
      <point x="293" y="530"/>
      <point x="386" y="473"/>
      <point x="465" y="273" type="curve"/>
      <point x="432" y="225" type="line"/>
      <point x="384" y="336"/>
      <point x="319" y="444"/>
      <point x="240" y="444" type="curve" smooth="yes"/>
      <point x="199" y="444"/>
      <point x="141" y="414"/>
      <point x="106" y="332" type="curve"/>
      <point x="85" y="383" type="line"/>
      <point x="102" y="391"/>
      <point x="119" y="394"/>
      <point x="135" y="394" type="curve" smooth="yes"/>
      <point x="200" y="394"/>
      <point x="239" y="344"/>
      <point x="239" y="286" type="curve" smooth="yes"/>
      <point x="239" y="273"/>
      <point x="237" y="261"/>
      <point x="232" y="250" type="curve"/>
      <point x="183" y="289" type="line"/>
      <point x="332" y="416" type="line"/>
    </contour>
    <contour>
      <point x="427" y="521" type="line"/>
      <point x="587" y="521" type="line"/>
      <point x="587" y="456" type="line"/>
      <point x="507" y="456" type="line"/>
      <point x="507" y="-40" type="line"/>
      <point x="427" y="-40" type="line"/>
    </contour>
  </outline>
</glyph>
<glyph name="uni09AB" format="1">
  <advance width="598"/>
  <unicode hex="09AB"/>
  <note>
	uni09AB
  </note>
  <outline>
    <contour>
      <point x="494" y="423"/>
      <point x="568" y="346"/>
      <point x="568" y="252" type="curve" smooth="yes"/>
      <point x="568" y="182"/>
      <point x="526" y="139"/>
      <point x="473" y="139" type="curve" smooth="yes"/>
      <point x="430" y="139"/>
      <point x="398" y="169"/>
      <point x="398" y="208" type="curve" smooth="yes"/>
      <point x="398" y="246"/>
      <point x="425" y="274"/>
      <point x="463" y="274" type="curve" smooth="yes"/>
      <point x="505" y="274"/>
      <point x="534" y="241"/>
      <point x="534" y="187" type="curve"/>
      <point x="483" y="237" type="line"/>
      <point x="493" y="251"/>
      <point x="498" y="268"/>
      <point x="498" y="284" type="curve" smooth="yes"/>
      <point x="498" y="319"/>
      <point x="471" y="337"/>
      <point x="417" y="337" type="curve" smooth="yes"/>
      <point x="378" y="337" type="line"/>
      <point x="378" y="-40" type="line"/>
      <point x="333" y="-40" type="line"/>
      <point x="311" y="56"/>
      <point x="221" y="117"/>
      <point x="100" y="138" type="curve"/>
      <point x="13" y="260" type="line"/>
      <point x="182" y="385" type="line"/>
      <point x="230" y="317" type="line"/>
      <point x="139" y="390"/>
      <point x="121" y="376"/>
      <point x="70" y="388" type="curve" smooth="yes"/>
      <point x="32" y="397"/>
      <point x="3" y="413"/>
      <point x="1" y="477" type="curve"/>
      <point x="92" y="456" type="line"/>
      <point x="-30" y="456" type="line"/>
      <point x="-30" y="521" type="line"/>
      <point x="628" y="521" type="line"/>
      <point x="628" y="456" type="line"/>
      <point x="102" y="456" type="line"/>
      <point x="111" y="482" type="line"/>
      <point x="169" y="432"/>
      <point x="224" y="375"/>
      <point x="273" y="311" type="curve"/>
      <point x="105" y="177" type="line"/>
      <point x="78" y="254" type="line"/>
      <point x="208" y="214"/>
      <point x="306" y="127"/>
      <point x="348" y="35" type="curve"/>
      <point x="298" y="72" type="line"/>
      <point x="298" y="423" type="line"/>
      <point x="384" y="423" type="line"/>
    </contour>
  </outline>
</glyph>
<glyph name="uni09AC" format="1">
  <advance width="434"/>
  <unicode hex="09AC"/>
  <note>
	uni09AC
  </note>
  <outline>
    <contour>
      <point x="269" y="310"/>
      <point x="171" y="262"/>
      <point x="94" y="203" type="curve"/>
      <point x="81" y="273" type="line"/>
      <point x="204" y="242"/>
      <point x="307" y="152"/>
      <point x="353" y="39" type="curve"/>
      <point x="304" y="72" type="line"/>
      <point x="304" y="466" type="line"/>
      <point x="384" y="466" type="line"/>
      <point x="384" y="-40" type="line"/>
      <point x="339" y="-40" type="line"/>
      <point x="307" y="86"/>
      <point x="208" y="141"/>
      <point x="87" y="154" type="curve"/>
      <point x="-5" y="283" type="line"/>
      <point x="95" y="359"/>
      <point x="233" y="423"/>
      <point x="332" y="444" type="curve"/>
      <point x="368" y="338" type="line"/>
    </contour>
    <contour>
      <point x="-30" y="456" type="line"/>
      <point x="-30" y="521" type="line"/>
      <point x="464" y="521" type="line"/>
      <point x="464" y="456" type="line"/>
    </contour>
  </outline>
</glyph>
<glyph name="uni09AD" format="1">
  <advance width="550"/>
  <unicode hex="09AD"/>
  <note>
	uni09AD
  </note>
  <outline>
    <contour>
      <point x="-30" y="521" type="line"/>
      <point x="580" y="521" type="line"/>
      <point x="580" y="456" type="line"/>
      <point x="-30" y="456" type="line"/>
    </contour>
    <contour>
      <point x="424" y="316"/>
      <point x="447" y="288"/>
      <point x="447" y="245" type="curve" smooth="yes"/>
      <point x="447" y="176"/>
      <point x="388" y="125"/>
      <point x="305" y="125" type="curve" smooth="yes"/>
      <point x="198" y="125"/>
      <point x="119" y="210"/>
      <point x="52" y="424" type="curve"/>
      <point x="-5" y="405" type="line"/>
      <point x="76" y="136"/>
      <point x="191" y="6"/>
      <point x="330" y="6" type="curve" smooth="yes"/>
      <point x="441" y="6"/>
      <point x="521" y="88"/>
      <point x="521" y="206" type="curve" smooth="yes"/>
      <point x="521" y="293"/>
      <point x="478" y="373"/>
      <point x="421" y="412" type="curve"/>
      <point x="384" y="357"/>
      <point x="332" y="320"/>
      <point x="285" y="320" type="curve" smooth="yes"/>
      <point x="275" y="320"/>
      <point x="262" y="322"/>
      <point x="252" y="327" type="curve"/>
      <point x="289" y="266" type="line"/>
      <point x="311" y="282"/>
      <point x="324" y="305"/>
      <point x="324" y="334" type="curve" smooth="yes"/>
      <point x="324" y="385"/>
      <point x="285" y="413"/>
      <point x="245" y="413" type="curve" smooth="yes"/>
      <point x="199" y="413"/>
      <point x="161" y="377"/>
      <point x="161" y="328" type="curve" smooth="yes"/>
      <point x="161" y="272"/>
      <point x="209" y="216"/>
      <point x="290" y="216" type="curve" smooth="yes"/>
      <point x="367" y="216"/>
      <point x="441" y="267"/>
      <point x="476" y="323" type="curve"/>
      <point x="404" y="326" type="line"/>
    </contour>
  </outline>
</glyph>
<glyph name="uni09AE" format="1">
  <advance width="436"/>
  <unicode hex="09AE"/>
  <note>
	uni09AE
  </note>
  <outline>
    <contour>
      <point x="-30" y="456" type="line"/>
      <point x="-30" y="521" type="line"/>
      <point x="466" y="521" type="line"/>
      <point x="466" y="456" type="line"/>
    </contour>
    <contour>
      <point x="117" y="475" type="line"/>
      <point x="117" y="435"/>
      <point x="132" y="412"/>
      <point x="178" y="370" type="curve" smooth="yes"/>
      <point x="232" y="323"/>
      <point x="249" y="282"/>
      <point x="249" y="232" type="curve" smooth="yes"/>
      <point x="249" y="208"/>
      <point x="243" y="184"/>
      <point x="234" y="165" type="curve"/>
      <point x="203" y="241" type="line"/>
      <point x="272" y="201"/>
      <point x="323" y="132"/>
      <point x="347" y="56" type="curve"/>
      <point x="306" y="82" type="line"/>
      <point x="306" y="467" type="line"/>
      <point x="386" y="467" type="line"/>
      <point x="386" y="-40" type="line"/>
      <point x="340" y="-40" type="line"/>
      <point x="329" y="48"/>
      <point x="267" y="119"/>
      <point x="185" y="140" type="curve"/>
      <point x="234" y="163" type="line"/>
      <point x="222" y="130"/>
      <point x="185" y="92"/>
      <point x="132" y="92" type="curve" smooth="yes"/>
      <point x="78" y="92"/>
      <point x="36" y="129"/>
      <point x="36" y="186" type="curve" smooth="yes"/>
      <point x="36" y="237"/>
      <point x="78" y="273"/>
      <point x="132" y="273" type="curve" smooth="yes"/>
      <point x="169" y="273"/>
      <point x="203" y="253"/>
      <point x="230" y="223" type="curve"/>
      <point x="150" y="240" type="line"/>
      <point x="160" y="250"/>
      <point x="169" y="264"/>
      <point x="169" y="281" type="curve" smooth="yes"/>
      <point x="169" y="315"/>
      <point x="145" y="333"/>
      <point x="83" y="362" type="curve" smooth="yes"/>
      <point x="18" y="393"/>
      <point x="-10" y="422"/>
      <point x="-10" y="479" type="curve"/>
    </contour>
  </outline>
</glyph>
<glyph name="uni09AF" format="1">
  <advance width="428"/>
  <unicode hex="09AF"/>
  <note>
	uni09AF
  </note>
  <outline>
    <contour>
      <point x="102" y="456" type="line"/>
      <point x="111" y="482" type="line"/>
      <point x="169" y="432"/>
      <point x="224" y="375"/>
      <point x="273" y="311" type="curve"/>
      <point x="105" y="177" type="line"/>
      <point x="78" y="254" type="line"/>
      <point x="208" y="214"/>
      <point x="306" y="127"/>
      <point x="348" y="35" type="curve"/>
      <point x="298" y="72" type="line"/>
      <point x="298" y="467" type="line"/>
      <point x="378" y="467" type="line"/>
      <point x="378" y="-40" type="line"/>
      <point x="333" y="-40" type="line"/>
      <point x="311" y="56"/>
      <point x="221" y="117"/>
      <point x="100" y="138" type="curve"/>
      <point x="13" y="260" type="line"/>
      <point x="182" y="385" type="line"/>
      <point x="230" y="317" type="line"/>
      <point x="159" y="374"/>
      <point x="138" y="377"/>
      <point x="70" y="388" type="curve" smooth="yes"/>
      <point x="30" y="395"/>
      <point x="2" y="420"/>
      <point x="1" y="477" type="curve"/>
      <point x="92" y="456" type="line"/>
      <point x="-30" y="456" type="line"/>
      <point x="-30" y="521" type="line"/>
      <point x="458" y="521" type="line"/>
      <point x="458" y="456" type="line"/>
    </contour>
  </outline>
</glyph>
<glyph name="uni09B2" format="1">
  <advance width="534"/>
  <unicode hex="09B2"/>
  <note>
	uni09B2
  </note>
  <outline>
    <contour>
      <point x="-30" y="456" type="line"/>
      <point x="-30" y="521" type="line"/>
      <point x="564" y="521" type="line"/>
      <point x="564" y="456" type="line"/>
    </contour>
    <contour>
      <point x="406" y="467" type="line"/>
      <point x="486" y="467" type="line"/>
      <point x="486" y="-40" type="line"/>
      <point x="406" y="-40" type="line"/>
    </contour>
    <contour>
      <point x="409" y="197" type="line"/>
      <point x="403" y="250"/>
      <point x="388" y="301"/>
      <point x="350" y="301" type="curve" smooth="yes"/>
      <point x="321" y="301"/>
      <point x="307" y="274"/>
      <point x="306" y="217" type="curve"/>
      <point x="270" y="217" type="line"/>
      <point x="257" y="273"/>
      <point x="218" y="301"/>
      <point x="176" y="301" type="curve" smooth="yes"/>
      <point x="125" y="301"/>
      <point x="90" y="262"/>
      <point x="90" y="217" type="curve" smooth="yes"/>
      <point x="90" y="179"/>
      <point x="114" y="152"/>
      <point x="146" y="152" type="curve" smooth="yes"/>
      <point x="156" y="152"/>
      <point x="165" y="155"/>
      <point x="174" y="159" type="curve"/>
      <point x="186" y="115" type="line"/>
      <point x="152" y="115"/>
      <point x="121" y="141"/>
      <point x="121" y="178" type="curve" smooth="yes"/>
      <point x="121" y="212"/>
      <point x="148" y="241"/>
      <point x="185" y="241" type="curve" smooth="yes"/>
      <point x="225" y="241"/>
      <point x="255" y="208"/>
      <point x="255" y="167" type="curve" smooth="yes"/>
      <point x="255" y="123"/>
      <point x="221" y="86"/>
      <point x="164" y="86" type="curve" smooth="yes"/>
      <point x="80" y="86"/>
      <point x="5" y="168"/>
      <point x="5" y="261" type="curve" smooth="yes"/>
      <point x="5" y="345"/>
      <point x="66" y="402"/>
      <point x="143" y="402" type="curve" smooth="yes"/>
      <point x="215" y="402"/>
      <point x="260" y="352"/>
      <point x="290" y="272" type="curve"/>
      <point x="233" y="289" type="line"/>
      <point x="233" y="356"/>
      <point x="272" y="396"/>
      <point x="320" y="396" type="curve" smooth="yes"/>
      <point x="386" y="396"/>
      <point x="424" y="320"/>
      <point x="448" y="212" type="curve"/>
    </contour>
  </outline>
</glyph>
<glyph name="uni09B6" format="1">
  <advance width="522"/>
  <unicode hex="09B6"/>
  <note>
	uni09B6
  </note>
  <outline>
    <contour>
      <point x="395" y="322" type="line"/>
      <point x="362" y="401"/>
      <point x="331" y="435"/>
      <point x="294" y="435" type="curve" smooth="yes"/>
      <point x="267" y="435"/>
      <point x="242" y="415"/>
      <point x="213" y="333" type="curve"/>
      <point x="190" y="422" type="line"/>
      <point x="295" y="386"/>
      <point x="342" y="320"/>
      <point x="342" y="266" type="curve" smooth="yes"/>
      <point x="342" y="224"/>
      <point x="314" y="192"/>
      <point x="271" y="192" type="curve" smooth="yes"/>
      <point x="214" y="192"/>
      <point x="170" y="242"/>
      <point x="173" y="342" type="curve"/>
      <point x="199" y="332" type="line"/>
      <point x="193" y="246"/>
      <point x="151" y="188"/>
      <point x="91" y="188" type="curve" smooth="yes"/>
      <point x="45" y="188"/>
      <point x="10" y="223"/>
      <point x="10" y="271" type="curve" smooth="yes"/>
      <point x="10" y="332"/>
      <point x="64" y="385"/>
      <point x="143" y="419" type="curve"/>
      <point x="155" y="328" type="line"/>
      <point x="133" y="416"/>
      <point x="89" y="456"/>
      <point x="36" y="456" type="curve" smooth="yes"/>
      <point x="-30" y="456" type="line"/>
      <point x="-30" y="521" type="line"/>
      <point x="27" y="521" type="line" smooth="yes"/>
      <point x="119" y="521"/>
      <point x="164" y="450"/>
      <point x="198" y="341" type="curve"/>
      <point x="112" y="375" type="line"/>
      <point x="162" y="480"/>
      <point x="198" y="530"/>
      <point x="260" y="530" type="curve" smooth="yes"/>
      <point x="325" y="530"/>
      <point x="372" y="474"/>
      <point x="425" y="371" type="curve"/>
    </contour>
    <contour>
      <point x="392" y="521" type="line"/>
      <point x="552" y="521" type="line"/>
      <point x="552" y="456" type="line"/>
      <point x="472" y="456" type="line"/>
      <point x="472" y="-40" type="line"/>
      <point x="392" y="-40" type="line"/>
    </contour>
  </outline>
</glyph>
<glyph name="uni09B7" format="1">
  <advance width="428"/>
  <unicode hex="09B7"/>
  <note>
	uni09B7
  </note>
  <outline>
    <contour>
      <point x="102" y="456" type="line"/>
      <point x="109" y="482" type="line"/>
      <point x="185" y="426"/>
      <point x="276" y="338"/>
      <point x="352" y="239" type="curve"/>
      <point x="323" y="208" type="line"/>
      <point x="290" y="249"/>
      <point x="265" y="274"/>
      <point x="224" y="307" type="curve"/>
      <point x="258" y="300" type="line"/>
      <point x="105" y="177" type="line"/>
      <point x="78" y="254" type="line"/>
      <point x="208" y="214"/>
      <point x="306" y="127"/>
      <point x="348" y="35" type="curve"/>
      <point x="298" y="72" type="line"/>
      <point x="298" y="467" type="line"/>
      <point x="378" y="467" type="line"/>
      <point x="378" y="-40" type="line"/>
      <point x="333" y="-40" type="line"/>
      <point x="311" y="56"/>
      <point x="221" y="117"/>
      <point x="100" y="138" type="curve"/>
      <point x="13" y="260" type="line"/>
      <point x="182" y="385" type="line"/>
      <point x="230" y="317" type="line"/>
      <point x="159" y="374"/>
      <point x="138" y="377"/>
      <point x="70" y="388" type="curve" smooth="yes"/>
      <point x="30" y="395"/>
      <point x="2" y="420"/>
      <point x="1" y="477" type="curve"/>
      <point x="92" y="456" type="line"/>
      <point x="-30" y="456" type="line"/>
      <point x="-30" y="521" type="line"/>
      <point x="458" y="521" type="line"/>
      <point x="458" y="456" type="line"/>
    </contour>
  </outline>
</glyph>
<glyph name="uni09B8" format="1">
  <advance width="501"/>
  <unicode hex="09B8"/>
  <note>
	uni09B8
  </note>
  <outline>
    <contour>
      <point x="451" y="467" type="line"/>
      <point x="451" y="-40" type="line"/>
      <point x="371" y="-40" type="line"/>
      <point x="371" y="467" type="line"/>
    </contour>
    <contour>
      <point x="173" y="272" type="line"/>
      <point x="185" y="287"/>
      <point x="192" y="304"/>
      <point x="192" y="322" type="curve" smooth="yes"/>
      <point x="192" y="368"/>
      <point x="146" y="374"/>
      <point x="130" y="376" type="curve" smooth="yes"/>
      <point x="63" y="385"/>
      <point x="30" y="397"/>
      <point x="17" y="472" type="curve"/>
      <point x="137" y="471" type="line"/>
      <point x="209" y="438"/>
      <point x="248" y="376"/>
      <point x="248" y="310" type="curve" smooth="yes"/>
      <point x="248" y="286"/>
      <point x="243" y="266"/>
      <point x="232" y="249" type="curve"/>
    </contour>
    <contour>
      <point x="-30" y="456" type="line"/>
      <point x="-30" y="521" type="line"/>
      <point x="531" y="521" type="line"/>
      <point x="531" y="456" type="line"/>
    </contour>
    <contour>
      <point x="119" y="207"/>
      <point x="141" y="232"/>
      <point x="180" y="281" type="curve" smooth="yes"/>
      <point x="221" y="332"/>
      <point x="253" y="362"/>
      <point x="293" y="362" type="curve" smooth="yes"/>
      <point x="350" y="362"/>
      <point x="386" y="302"/>
      <point x="410" y="213" type="curve"/>
      <point x="377" y="174" type="line"/>
      <point x="367" y="228"/>
      <point x="354" y="255"/>
      <point x="329" y="255" type="curve" smooth="yes"/>
      <point x="307" y="255"/>
      <point x="288" y="233"/>
      <point x="249" y="185" type="curve" smooth="yes"/>
      <point x="199" y="122"/>
      <point x="173" y="102"/>
      <point x="134" y="102" type="curve" smooth="yes"/>
      <point x="83" y="102"/>
      <point x="35" y="152"/>
      <point x="13" y="238" type="curve"/>
      <point x="55" y="256" type="line"/>
      <point x="66" y="217"/>
      <point x="79" y="207"/>
      <point x="94" y="207" type="curve" smooth="yes"/>
    </contour>
  </outline>
</glyph>
<glyph name="uni09B9" format="1">
  <advance width="446"/>
  <unicode hex="09B9"/>
  <note>
	uni09B9
  </note>
  <outline>
    <contour>
      <point x="471" y="521" type="line"/>
      <point x="471" y="456" type="line"/>
      <point x="-30" y="456" type="line"/>
      <point x="-30" y="521" type="line"/>
    </contour>
    <contour>
      <point x="319" y="432"/>
      <point x="407" y="353"/>
      <point x="407" y="254" type="curve" smooth="yes"/>
      <point x="407" y="157"/>
      <point x="322" y="86"/>
      <point x="212" y="86" type="curve"/>
      <point x="172" y="146" type="line"/>
      <point x="261" y="107"/>
      <point x="334" y="64"/>
      <point x="480" y="-60" type="curve"/>
      <point x="444" y="-105" type="line"/>
      <point x="302" y="3"/>
      <point x="227" y="35"/>
      <point x="96" y="61" type="curve"/>
      <point x="9" y="222" type="line"/>
      <point x="51" y="199"/>
      <point x="102" y="186"/>
      <point x="154" y="186" type="curve" smooth="yes"/>
      <point x="256" y="186"/>
      <point x="327" y="236"/>
      <point x="327" y="294" type="curve" smooth="yes"/>
      <point x="327" y="326"/>
      <point x="305" y="348"/>
      <point x="263" y="348" type="curve" smooth="yes"/>
      <point x="237" y="348"/>
      <point x="223" y="340"/>
      <point x="201" y="329" type="curve"/>
      <point x="220" y="390" type="line"/>
      <point x="233" y="373"/>
      <point x="236" y="357"/>
      <point x="236" y="343" type="curve" smooth="yes"/>
      <point x="236" y="286"/>
      <point x="187" y="239"/>
      <point x="128" y="239" type="curve" smooth="yes"/>
      <point x="77" y="239"/>
      <point x="40" y="275"/>
      <point x="40" y="321" type="curve" smooth="yes"/>
      <point x="40" y="382"/>
      <point x="105" y="432"/>
      <point x="200" y="432" type="curve" smooth="yes"/>
    </contour>
  </outline>
</glyph>
<glyph name="uni09BE" format="1">
  <advance width="193"/>
  <unicode hex="09BE"/>
  <note>
	uni09BE
  </note>
  <outline>
    <contour>
      <point x="223" y="521" type="line"/>
      <point x="223" y="456" type="line"/>
      <point x="143" y="456" type="line"/>
      <point x="143" y="-40" type="line"/>
      <point x="63" y="-40" type="line"/>
      <point x="63" y="346" type="line" smooth="yes"/>
      <point x="63" y="405"/>
      <point x="62" y="456"/>
      <point x="17" y="456" type="curve" smooth="yes"/>
      <point x="-30" y="456" type="line"/>
      <point x="-30" y="521" type="line"/>
      <point x="32" y="521" type="line" smooth="yes"/>
      <point x="75" y="521"/>
      <point x="89" y="474"/>
      <point x="98" y="394" type="curve"/>
      <point x="63" y="371" type="line"/>
      <point x="93" y="521" type="line"/>
    </contour>
  </outline>
</glyph>
<glyph name="uni09BF" format="1">
  <advance width="183"/>
  <unicode hex="09BF"/>
  <note>
	uni09BF
  </note>
  <outline>
    <contour>
      <point x="133" y="467" type="line"/>
      <point x="133" y="-40" type="line"/>
      <point x="53" y="-40" type="line"/>
      <point x="53" y="467" type="line"/>
    </contour>
    <contour>
      <point x="89" y="486" type="line"/>
      <point x="42" y="536"/>
      <point x="22" y="578"/>
      <point x="22" y="625" type="curve" smooth="yes"/>
      <point x="22" y="720"/>
      <point x="104" y="786"/>
      <point x="213" y="786" type="curve" smooth="yes"/>
      <point x="339" y="786"/>
      <point x="451" y="699"/>
      <point x="553" y="582" type="curve"/>
      <point x="512" y="545" type="line"/>
      <point x="419" y="639"/>
      <point x="336" y="689"/>
      <point x="246" y="689" type="curve" smooth="yes"/>
      <point x="156" y="689"/>
      <point x="101" y="638"/>
      <point x="101" y="576" type="curve" smooth="yes"/>
      <point x="101" y="542"/>
      <point x="117" y="512"/>
      <point x="137" y="487" type="curve"/>
    </contour>
    <contour>
      <point x="213" y="521" type="line"/>
      <point x="213" y="456" type="line"/>
      <point x="-30" y="456" type="line"/>
      <point x="-30" y="521" type="line"/>
    </contour>
  </outline>
</glyph>
<glyph name="uni09C0" format="1">
  <advance width="183"/>
  <unicode hex="09C0"/>
  <note>
	uni09C0
  </note>
  <outline>
    <contour>
      <point x="52" y="500" type="line"/>
      <point x="52" y="630"/>
      <point x="-34" y="710"/>
      <point x="-190" y="710" type="curve" smooth="yes"/>
      <point x="-286" y="710"/>
      <point x="-359" y="680"/>
      <point x="-359" y="653" type="curve" smooth="yes"/>
      <point x="-359" y="644"/>
      <point x="-350" y="638"/>
      <point x="-333" y="638" type="curve" smooth="yes"/>
      <point x="-306" y="638"/>
      <point x="-248" y="654"/>
      <point x="-201" y="654" type="curve" smooth="yes"/>
      <point x="-108" y="654"/>
      <point x="-63" y="590"/>
      <point x="-52" y="520" type="curve"/>
      <point x="-130" y="520" type="line"/>
      <point x="-126" y="527"/>
      <point x="-124" y="535"/>
      <point x="-124" y="542" type="curve" smooth="yes"/>
      <point x="-124" y="560"/>
      <point x="-139" y="569"/>
      <point x="-168" y="569" type="curve" smooth="yes"/>
      <point x="-202" y="569"/>
      <point x="-258" y="557"/>
      <point x="-292" y="557" type="curve" smooth="yes"/>
      <point x="-364" y="557"/>
      <point x="-424" y="611"/>
      <point x="-424" y="667" type="curve" smooth="yes"/>
      <point x="-424" y="733"/>
      <point x="-341" y="791"/>
      <point x="-216" y="791" type="curve" smooth="yes"/>
      <point x="-14" y="791"/>
      <point x="123" y="641"/>
      <point x="131" y="499" type="curve"/>
    </contour>
    <contour>
      <point x="133" y="467" type="line"/>
      <point x="133" y="-40" type="line"/>
      <point x="53" y="-40" type="line"/>
      <point x="53" y="467" type="line"/>
    </contour>
    <contour>
      <point x="-22" y="456" type="line"/>
      <point x="-22" y="521" type="line"/>
      <point x="213" y="521" type="line"/>
      <point x="213" y="456" type="line"/>
    </contour>
  </outline>
</glyph>
<glyph name="uni09DC" format="1">
  <advance width="513"/>
  <unicode hex="09DC"/>
  <note>
	uni09DC
  </note>
  <outline>
    <contour>
      <point x="253" y="466" type="line"/>
      <point x="253" y="294" type="line" smooth="yes"/>
      <point x="253" y="283"/>
      <point x="256" y="275"/>
      <point x="266" y="275" type="curve" smooth="yes"/>
      <point x="289" y="275"/>
      <point x="335" y="317"/>
      <point x="380" y="387" type="curve"/>
      <point x="434" y="340"/>
      <point x="487" y="270"/>
      <point x="487" y="173" type="curve" smooth="yes"/>
      <point x="487" y="62"/>
      <point x="417" y="-18"/>
      <point x="306" y="-18" type="curve" smooth="yes"/>
      <point x="176" y="-18"/>
      <point x="68" y="90"/>
      <point x="-10" y="404" type="curve"/>
      <point x="48" y="422" type="line"/>
      <point x="106" y="178"/>
      <point x="185" y="98"/>
      <point x="285" y="98" type="curve" smooth="yes"/>
      <point x="362" y="98"/>
      <point x="417" y="146"/>
      <point x="417" y="210" type="curve" smooth="yes"/>
      <point x="417" y="248"/>
      <point x="398" y="285"/>
      <point x="360" y="307" type="curve"/>
      <point x="432" y="277" type="line"/>
      <point x="400" y="216"/>
      <point x="339" y="174"/>
      <point x="293" y="174" type="curve" smooth="yes"/>
      <point x="230" y="174"/>
      <point x="173" y="254"/>
      <point x="173" y="329" type="curve" smooth="yes"/>
      <point x="173" y="466" type="line"/>
    </contour>
    <contour>
      <point x="-30" y="456" type="line"/>
      <point x="-30" y="521" type="line"/>
      <point x="543" y="521" type="line"/>
      <point x="543" y="456" type="line"/>
    </contour>
    <contour>
      <point x="326" y="-190"/>
      <point x="355" y="-161"/>
      <point x="355" y="-125" type="curve" smooth="yes"/>
      <point x="355" y="-89"/>
      <point x="326" y="-60"/>
      <point x="290" y="-60" type="curve" smooth="yes"/>
      <point x="254" y="-60"/>
      <point x="225" y="-89"/>
      <point x="225" y="-125" type="curve" smooth="yes"/>
      <point x="225" y="-161"/>
      <point x="254" y="-190"/>
      <point x="290" y="-190" type="curve" smooth="yes"/>
    </contour>
  </outline>
</glyph>
<glyph name="uni09DD" format="1">
  <advance width="422"/>
  <unicode hex="09DD"/>
  <note>
	uni09DD
  </note>
  <outline>
    <contour>
      <point x="122" y="467" type="line"/>
      <point x="122" y="101" type="line" smooth="yes"/>
      <point x="122" y="74"/>
      <point x="127" y="66"/>
      <point x="140" y="66" type="curve" smooth="yes"/>
      <point x="192" y="66"/>
      <point x="281" y="196"/>
      <point x="281" y="274" type="curve"/>
      <point x="325" y="220" type="line"/>
      <point x="313" y="209"/>
      <point x="298" y="204"/>
      <point x="279" y="204" type="curve" smooth="yes"/>
      <point x="230" y="204"/>
      <point x="193" y="240"/>
      <point x="193" y="285" type="curve" smooth="yes"/>
      <point x="193" y="330"/>
      <point x="229" y="369"/>
      <point x="281" y="369" type="curve" smooth="yes"/>
      <point x="343" y="369"/>
      <point x="387" y="312"/>
      <point x="387" y="245" type="curve" smooth="yes"/>
      <point x="387" y="131"/>
      <point x="262" y="-30"/>
      <point x="171" y="-30" type="curve" smooth="yes"/>
      <point x="111" y="-30"/>
      <point x="42" y="40"/>
      <point x="42" y="138" type="curve" smooth="yes"/>
      <point x="42" y="467" type="line"/>
    </contour>
    <contour>
      <point x="-30" y="456" type="line"/>
      <point x="-30" y="521" type="line"/>
      <point x="452" y="521" type="line"/>
      <point x="452" y="456" type="line"/>
    </contour>
    <contour>
      <point x="276" y="-190"/>
      <point x="305" y="-161"/>
      <point x="305" y="-125" type="curve" smooth="yes"/>
      <point x="305" y="-89"/>
      <point x="276" y="-60"/>
      <point x="240" y="-60" type="curve" smooth="yes"/>
      <point x="204" y="-60"/>
      <point x="175" y="-89"/>
      <point x="175" y="-125" type="curve" smooth="yes"/>
      <point x="175" y="-161"/>
      <point x="204" y="-190"/>
      <point x="240" y="-190" type="curve" smooth="yes"/>
    </contour>
  </outline>
</glyph>
<glyph name="uni09DF" format="1">
  <advance width="428"/>
  <unicode hex="09DF"/>
  <note>
	uni09DF
  </note>
  <outline>
    <contour>
      <point x="102" y="456" type="line"/>
      <point x="111" y="482" type="line"/>
      <point x="169" y="432"/>
      <point x="224" y="375"/>
      <point x="273" y="311" type="curve"/>
      <point x="105" y="177" type="line"/>
      <point x="78" y="254" type="line"/>
      <point x="208" y="214"/>
      <point x="306" y="127"/>
      <point x="348" y="35" type="curve"/>
      <point x="298" y="72" type="line"/>
      <point x="298" y="467" type="line"/>
      <point x="378" y="467" type="line"/>
      <point x="378" y="-40" type="line"/>
      <point x="333" y="-40" type="line"/>
      <point x="311" y="56"/>
      <point x="221" y="117"/>
      <point x="100" y="138" type="curve"/>
      <point x="13" y="260" type="line"/>
      <point x="182" y="385" type="line"/>
      <point x="230" y="317" type="line"/>
      <point x="159" y="374"/>
      <point x="138" y="377"/>
      <point x="70" y="388" type="curve" smooth="yes"/>
      <point x="30" y="395"/>
      <point x="2" y="420"/>
      <point x="1" y="477" type="curve"/>
      <point x="92" y="456" type="line"/>
      <point x="-30" y="456" type="line"/>
      <point x="-30" y="521" type="line"/>
      <point x="458" y="521" type="line"/>
      <point x="458" y="456" type="line"/>
    </contour>
    <contour>
      <point x="196" y="-62"/>
      <point x="225" y="-33"/>
      <point x="225" y="3" type="curve" smooth="yes"/>
      <point x="225" y="39"/>
      <point x="196" y="68"/>
      <point x="160" y="68" type="curve" smooth="yes"/>
      <point x="124" y="68"/>
      <point x="95" y="39"/>
      <point x="95" y="3" type="curve" smooth="yes"/>
      <point x="95" y="-33"/>
      <point x="124" y="-62"/>
      <point x="160" y="-62" type="curve" smooth="yes"/>
    </contour>
  </outline>
</glyph>
<glyph name="g51" format="1">
  <advance width="0"/>
  <note>
	g51
  </note>
  <outline>
    <contour>
      <point x="36" y="-50"/>
      <point x="65" y="-21"/>
      <point x="65" y="15" type="curve" smooth="yes"/>
      <point x="65" y="51"/>
      <point x="36" y="80"/>
      <point x="0" y="80" type="curve" smooth="yes"/>
      <point x="-36" y="80"/>
      <point x="-65" y="51"/>
      <point x="-65" y="15" type="curve" smooth="yes"/>
      <point x="-65" y="-21"/>
      <point x="-36" y="-50"/>
      <point x="0" y="-50" type="curve" smooth="yes"/>
    </contour>
  </outline>
</glyph>
